{
	"patcher" : 	{
		"fileversion" : 1,
		"appversion" : 		{
			"major" : 6,
			"minor" : 1,
			"revision" : 9,
			"architecture" : "x86"
		}
,
		"openrect" : [ 490.0, 529.0, 482.0, 496.0 ],
		"bgcolor" : [ 0.25, 0.25, 0.25, 1.0 ],
		"bglocked" : 0,
		"openinpresentation" : 1,
		"default_fontsize" : 12.0,
		"default_fontface" : 0,
		"default_fontname" : "Menlo Regular",
		"gridonopen" : 0,
		"gridsize" : [ 15.0, 5.0 ],
		"gridsnaponopen" : 0,
		"statusbarvisible" : 2,
		"toolbarvisible" : 1,
		"boxanimatetime" : 200,
		"imprint" : 0,
		"enablehscroll" : 1,
		"enablevscroll" : 1,
		"devicewidth" : 0.0,
		"description" : "",
		"digest" : "",
		"tags" : "",
		"boxes" : [ 			{
				"box" : 				{
					"fontname" : "Menlo Regular",
					"fontsize" : 11.0,
					"id" : "obj-84",
					"maxclass" : "newobj",
					"numinlets" : 16,
					"numoutlets" : 32,
					"outlettype" : [ "signal", "signal", "signal", "signal", "signal", "signal", "signal", "signal", "signal", "signal", "signal", "signal", "signal", "signal", "signal", "signal", "signal", "signal", "signal", "signal", "signal", "signal", "signal", "signal", "signal", "signal", "signal", "signal", "signal", "signal", "signal", "signal" ],
					"patching_rect" : [ 630.0, 195.0, 437.5, 19.0 ],
					"saved_object_attributes" : 					{
						"active" : [ 1, 1, 1, 1, 1, 1, 1, 1, 1, 1, 1, 1, 1, 1, 1, 1, 1, 1, 1, 1, 1, 1, 1, 1, 1, 1, 1, 1, 1, 1, 1, 1 ],
						"aed_scale" : 0.0,
						"coord_angles" : 0,
						"coord_system" : 0,
						"gain" : 0.0,
						"order" : 3,
						"orderweight" : [ 0.0, 0.0, 0.0, 0.0 ],
						"type" : 1,
						"xyz_scale" : 0.0
					}
,
					"text" : "ambidecode~ 3 32"
				}

			}
, 			{
				"box" : 				{
					"fontname" : "Menlo Regular",
					"fontsize" : 12.0,
					"id" : "obj-31",
					"maxclass" : "newobj",
					"numinlets" : 1,
					"numoutlets" : 1,
					"outlettype" : [ "" ],
					"patching_rect" : [ 735.0, 35.0, 61.0, 20.0 ],
					"text" : "AEM_top"
				}

			}
, 			{
				"box" : 				{
					"fontname" : "Menlo Regular",
					"fontsize" : 12.0,
					"id" : "obj-21",
					"maxclass" : "newobj",
					"numinlets" : 0,
					"numoutlets" : 1,
					"outlettype" : [ "signal" ],
					"patching_rect" : [ 735.0, 640.0, 83.0, 20.0 ],
					"text" : "testsignal"
				}

			}
, 			{
				"box" : 				{
					"id" : "obj-23",
					"maxclass" : "button",
					"numinlets" : 1,
					"numoutlets" : 1,
					"outlettype" : [ "bang" ],
					"patching_rect" : [ 255.0, 10.0, 20.0, 20.0 ],
					"presentation" : 1,
					"presentation_rect" : [ 435.0, 460.0, 30.0, 30.0 ]
				}

			}
, 			{
				"box" : 				{
					"fontname" : "Menlo Regular",
					"fontsize" : 12.0,
					"id" : "obj-7",
					"maxclass" : "newobj",
					"numinlets" : 1,
					"numoutlets" : 16,
					"outlettype" : [ "signal", "signal", "signal", "signal", "signal", "signal", "signal", "signal", "signal", "signal", "signal", "signal", "signal", "signal", "signal", "signal" ],
					"patching_rect" : [ 15.0, 390.0, 630.0, 20.0 ],
					"text" : "sp_BFMT3_player"
				}

			}
, 			{
				"box" : 				{
					"bgcolor" : [ 1.0, 1.0, 1.0, 1.0 ],
					"bgoncolor" : [ 0.003851, 0.0, 0.0, 1.0 ],
					"bgovercolor" : [ 0.003851, 0.0, 0.0, 1.0 ],
					"bgoveroncolor" : [ 0.003851, 0.0, 0.0, 1.0 ],
					"bordercolor" : [ 0.003851, 0.0, 0.0, 1.0 ],
					"borderoncolor" : [ 0.003851, 0.0, 0.0, 1.0 ],
					"fontname" : "Menlo Regular",
					"fontsize" : 18.0,
					"id" : "obj-66",
					"ignoreclick" : 1,
					"maxclass" : "textbutton",
					"numinlets" : 1,
					"numoutlets" : 3,
					"outlettype" : [ "", "", "int" ],
					"parameter_enable" : 0,
					"patching_rect" : [ 30.0, 30.0, 100.0, 20.0 ],
					"presentation" : 1,
					"presentation_rect" : [ 37.5, 10.0, 135.0, 30.0 ],
					"text" : "CONTROL",
					"textcolor" : [ 0.003851, 0.0, 0.0, 1.0 ],
					"texton" : "INPUTS",
					"textovercolor" : [ 0.003851, 0.0, 0.0, 1.0 ],
					"textoveroncolor" : [ 0.866667, 0.866667, 0.866667, 1.0 ]
				}

			}
, 			{
				"box" : 				{
					"fontname" : "Menlo Regular",
					"fontsize" : 12.0,
					"frgb" : 0.0,
					"id" : "obj-24",
					"maxclass" : "comment",
					"numinlets" : 1,
					"numoutlets" : 0,
					"patching_rect" : [ 465.0, 963.0, 19.0, 20.0 ],
					"presentation" : 1,
					"presentation_rect" : [ 420.0, 398.0, 19.0, 20.0 ],
					"text" : "Z",
					"textcolor" : [ 1.0, 1.0, 1.0, 1.0 ]
				}

			}
, 			{
				"box" : 				{
					"fontname" : "Menlo Regular",
					"fontsize" : 12.0,
					"frgb" : 0.0,
					"id" : "obj-25",
					"maxclass" : "comment",
					"numinlets" : 1,
					"numoutlets" : 0,
					"patching_rect" : [ 465.0, 947.0, 19.0, 20.0 ],
					"presentation" : 1,
					"presentation_rect" : [ 420.0, 382.0, 19.0, 20.0 ],
					"text" : "Y",
					"textcolor" : [ 1.0, 1.0, 1.0, 1.0 ]
				}

			}
, 			{
				"box" : 				{
					"fontname" : "Menlo Regular",
					"fontsize" : 12.0,
					"frgb" : 0.0,
					"id" : "obj-49",
					"maxclass" : "comment",
					"numinlets" : 1,
					"numoutlets" : 0,
					"patching_rect" : [ 465.0, 931.0, 19.0, 20.0 ],
					"presentation" : 1,
					"presentation_rect" : [ 420.0, 366.0, 19.0, 20.0 ],
					"text" : "X",
					"textcolor" : [ 1.0, 1.0, 1.0, 1.0 ]
				}

			}
, 			{
				"box" : 				{
					"fontname" : "Menlo Regular",
					"fontsize" : 12.0,
					"frgb" : 0.0,
					"id" : "obj-64",
					"maxclass" : "comment",
					"numinlets" : 1,
					"numoutlets" : 0,
					"patching_rect" : [ 465.0, 915.0, 19.0, 20.0 ],
					"presentation" : 1,
					"presentation_rect" : [ 420.0, 350.0, 19.0, 20.0 ],
					"text" : "W",
					"textcolor" : [ 1.0, 1.0, 1.0, 1.0 ]
				}

			}
, 			{
				"box" : 				{
					"fontname" : "Menlo Regular",
					"fontsize" : 12.0,
					"id" : "obj-6",
					"maxclass" : "newobj",
					"numinlets" : 41,
					"numoutlets" : 0,
					"patching_rect" : [ 30.0, 580.0, 915.0, 20.0 ],
					"text" : "AEM_outputs"
				}

			}
, 			{
				"box" : 				{
					"fontname" : "Menlo Regular",
					"fontsize" : 12.0,
					"frgb" : 0.0,
					"id" : "obj-88",
					"linecount" : 9,
					"maxclass" : "comment",
					"numinlets" : 1,
					"numoutlets" : 0,
					"patching_rect" : [ 483.0, 785.0, 25.0, 132.0 ],
					"presentation" : 1,
					"presentation_linecount" : 9,
					"presentation_rect" : [ 438.0, 220.0, 25.0, 132.0 ],
					"text" : "<\nO\nU\nT\nP\nU\nT\nS\n<",
					"textcolor" : [ 1.0, 1.0, 1.0, 1.0 ]
				}

			}
, 			{
				"box" : 				{
					"fontname" : "Menlo Regular",
					"fontsize" : 12.0,
					"frgb" : 0.0,
					"id" : "obj-85",
					"linecount" : 9,
					"maxclass" : "comment",
					"numinlets" : 1,
					"numoutlets" : 0,
					"patching_rect" : [ 483.0, 655.0, 25.0, 132.0 ],
					"presentation" : 1,
					"presentation_linecount" : 9,
					"presentation_rect" : [ 438.0, 90.0, 25.0, 132.0 ],
					"text" : "<\nE\nN\nC\nO\nD\nE\nR\n<",
					"textcolor" : [ 1.0, 1.0, 1.0, 1.0 ]
				}

			}
, 			{
				"box" : 				{
					"fontname" : "Menlo Regular",
					"fontsize" : 12.0,
					"frgb" : 0.0,
					"id" : "obj-76",
					"maxclass" : "comment",
					"numinlets" : 1,
					"numoutlets" : 0,
					"patching_rect" : [ 465.0, 898.0, 19.0, 20.0 ],
					"presentation" : 1,
					"presentation_rect" : [ 420.0, 333.0, 19.0, 20.0 ],
					"text" : "8",
					"textcolor" : [ 1.0, 1.0, 1.0, 1.0 ]
				}

			}
, 			{
				"box" : 				{
					"fontname" : "Menlo Regular",
					"fontsize" : 12.0,
					"frgb" : 0.0,
					"id" : "obj-77",
					"maxclass" : "comment",
					"numinlets" : 1,
					"numoutlets" : 0,
					"patching_rect" : [ 465.0, 882.0, 19.0, 20.0 ],
					"presentation" : 1,
					"presentation_rect" : [ 420.0, 317.0, 19.0, 20.0 ],
					"text" : "7",
					"textcolor" : [ 1.0, 1.0, 1.0, 1.0 ]
				}

			}
, 			{
				"box" : 				{
					"fontname" : "Menlo Regular",
					"fontsize" : 12.0,
					"frgb" : 0.0,
					"id" : "obj-78",
					"maxclass" : "comment",
					"numinlets" : 1,
					"numoutlets" : 0,
					"patching_rect" : [ 465.0, 866.0, 19.0, 20.0 ],
					"presentation" : 1,
					"presentation_rect" : [ 420.0, 301.0, 19.0, 20.0 ],
					"text" : "6",
					"textcolor" : [ 1.0, 1.0, 1.0, 1.0 ]
				}

			}
, 			{
				"box" : 				{
					"fontname" : "Menlo Regular",
					"fontsize" : 12.0,
					"frgb" : 0.0,
					"id" : "obj-79",
					"maxclass" : "comment",
					"numinlets" : 1,
					"numoutlets" : 0,
					"patching_rect" : [ 465.0, 849.0, 19.0, 20.0 ],
					"presentation" : 1,
					"presentation_rect" : [ 420.0, 284.0, 19.0, 20.0 ],
					"text" : "5",
					"textcolor" : [ 1.0, 1.0, 1.0, 1.0 ]
				}

			}
, 			{
				"box" : 				{
					"fontname" : "Menlo Regular",
					"fontsize" : 12.0,
					"frgb" : 0.0,
					"id" : "obj-80",
					"maxclass" : "comment",
					"numinlets" : 1,
					"numoutlets" : 0,
					"patching_rect" : [ 465.0, 833.0, 19.0, 20.0 ],
					"presentation" : 1,
					"presentation_rect" : [ 420.0, 268.0, 19.0, 20.0 ],
					"text" : "4",
					"textcolor" : [ 1.0, 1.0, 1.0, 1.0 ]
				}

			}
, 			{
				"box" : 				{
					"fontname" : "Menlo Regular",
					"fontsize" : 12.0,
					"frgb" : 0.0,
					"id" : "obj-81",
					"maxclass" : "comment",
					"numinlets" : 1,
					"numoutlets" : 0,
					"patching_rect" : [ 465.0, 817.0, 19.0, 20.0 ],
					"presentation" : 1,
					"presentation_rect" : [ 420.0, 252.0, 19.0, 20.0 ],
					"text" : "3",
					"textcolor" : [ 1.0, 1.0, 1.0, 1.0 ]
				}

			}
, 			{
				"box" : 				{
					"fontname" : "Menlo Regular",
					"fontsize" : 12.0,
					"frgb" : 0.0,
					"id" : "obj-82",
					"maxclass" : "comment",
					"numinlets" : 1,
					"numoutlets" : 0,
					"patching_rect" : [ 465.0, 801.0, 19.0, 20.0 ],
					"presentation" : 1,
					"presentation_rect" : [ 420.0, 236.0, 19.0, 20.0 ],
					"text" : "2",
					"textcolor" : [ 1.0, 1.0, 1.0, 1.0 ]
				}

			}
, 			{
				"box" : 				{
					"fontname" : "Menlo Regular",
					"fontsize" : 12.0,
					"frgb" : 0.0,
					"id" : "obj-83",
					"maxclass" : "comment",
					"numinlets" : 1,
					"numoutlets" : 0,
					"patching_rect" : [ 465.0, 785.0, 19.0, 20.0 ],
					"presentation" : 1,
					"presentation_rect" : [ 420.0, 220.0, 19.0, 20.0 ],
					"text" : "1",
					"textcolor" : [ 1.0, 1.0, 1.0, 1.0 ]
				}

			}
, 			{
				"box" : 				{
					"fontname" : "Menlo Regular",
					"fontsize" : 12.0,
					"frgb" : 0.0,
					"id" : "obj-68",
					"maxclass" : "comment",
					"numinlets" : 1,
					"numoutlets" : 0,
					"patching_rect" : [ 465.0, 769.0, 19.0, 20.0 ],
					"presentation" : 1,
					"presentation_rect" : [ 420.0, 204.0, 19.0, 20.0 ],
					"text" : "8",
					"textcolor" : [ 1.0, 1.0, 1.0, 1.0 ]
				}

			}
, 			{
				"box" : 				{
					"fontname" : "Menlo Regular",
					"fontsize" : 12.0,
					"frgb" : 0.0,
					"id" : "obj-69",
					"maxclass" : "comment",
					"numinlets" : 1,
					"numoutlets" : 0,
					"patching_rect" : [ 465.0, 753.0, 19.0, 20.0 ],
					"presentation" : 1,
					"presentation_rect" : [ 420.0, 188.0, 19.0, 20.0 ],
					"text" : "7",
					"textcolor" : [ 1.0, 1.0, 1.0, 1.0 ]
				}

			}
, 			{
				"box" : 				{
					"fontname" : "Menlo Regular",
					"fontsize" : 12.0,
					"frgb" : 0.0,
					"id" : "obj-70",
					"maxclass" : "comment",
					"numinlets" : 1,
					"numoutlets" : 0,
					"patching_rect" : [ 465.0, 737.0, 19.0, 20.0 ],
					"presentation" : 1,
					"presentation_rect" : [ 420.0, 172.0, 19.0, 20.0 ],
					"text" : "6",
					"textcolor" : [ 1.0, 1.0, 1.0, 1.0 ]
				}

			}
, 			{
				"box" : 				{
					"fontname" : "Menlo Regular",
					"fontsize" : 12.0,
					"frgb" : 0.0,
					"id" : "obj-71",
					"maxclass" : "comment",
					"numinlets" : 1,
					"numoutlets" : 0,
					"patching_rect" : [ 465.0, 720.0, 19.0, 20.0 ],
					"presentation" : 1,
					"presentation_rect" : [ 420.0, 155.0, 19.0, 20.0 ],
					"text" : "5",
					"textcolor" : [ 1.0, 1.0, 1.0, 1.0 ]
				}

			}
, 			{
				"box" : 				{
					"fontname" : "Menlo Regular",
					"fontsize" : 12.0,
					"frgb" : 0.0,
					"id" : "obj-72",
					"maxclass" : "comment",
					"numinlets" : 1,
					"numoutlets" : 0,
					"patching_rect" : [ 465.0, 704.0, 19.0, 20.0 ],
					"presentation" : 1,
					"presentation_rect" : [ 420.0, 139.0, 19.0, 20.0 ],
					"text" : "4",
					"textcolor" : [ 1.0, 1.0, 1.0, 1.0 ]
				}

			}
, 			{
				"box" : 				{
					"fontname" : "Menlo Regular",
					"fontsize" : 12.0,
					"frgb" : 0.0,
					"id" : "obj-73",
					"maxclass" : "comment",
					"numinlets" : 1,
					"numoutlets" : 0,
					"patching_rect" : [ 465.0, 688.0, 19.0, 20.0 ],
					"presentation" : 1,
					"presentation_rect" : [ 420.0, 123.0, 19.0, 20.0 ],
					"text" : "3",
					"textcolor" : [ 1.0, 1.0, 1.0, 1.0 ]
				}

			}
, 			{
				"box" : 				{
					"fontname" : "Menlo Regular",
					"fontsize" : 12.0,
					"frgb" : 0.0,
					"id" : "obj-74",
					"maxclass" : "comment",
					"numinlets" : 1,
					"numoutlets" : 0,
					"patching_rect" : [ 465.0, 672.0, 19.0, 20.0 ],
					"presentation" : 1,
					"presentation_rect" : [ 420.0, 107.0, 19.0, 20.0 ],
					"text" : "2",
					"textcolor" : [ 1.0, 1.0, 1.0, 1.0 ]
				}

			}
, 			{
				"box" : 				{
					"fontname" : "Menlo Regular",
					"fontsize" : 12.0,
					"frgb" : 0.0,
					"id" : "obj-75",
					"maxclass" : "comment",
					"numinlets" : 1,
					"numoutlets" : 0,
					"patching_rect" : [ 465.0, 656.0, 19.0, 20.0 ],
					"presentation" : 1,
					"presentation_rect" : [ 420.0, 91.0, 19.0, 20.0 ],
					"text" : "1",
					"textcolor" : [ 1.0, 1.0, 1.0, 1.0 ]
				}

			}
, 			{
				"box" : 				{
					"fontname" : "Menlo Regular",
					"fontsize" : 12.0,
					"frgb" : 0.0,
					"id" : "obj-65",
					"maxclass" : "comment",
					"numinlets" : 1,
					"numoutlets" : 0,
					"patching_rect" : [ 71.0, 615.0, 394.0, 20.0 ],
					"presentation" : 1,
					"presentation_rect" : [ 25.999998, 50.0, 394.0, 20.0 ],
					"text" : "|------------- INPUTS -------------|---- PLAYER ----|",
					"textcolor" : [ 1.0, 1.0, 1.0, 1.0 ]
				}

			}
, 			{
				"box" : 				{
					"fontname" : "Menlo Regular",
					"fontsize" : 12.0,
					"frgb" : 0.0,
					"id" : "obj-50",
					"maxclass" : "comment",
					"numinlets" : 1,
					"numoutlets" : 0,
					"patching_rect" : [ 443.0, 635.0, 19.0, 20.0 ],
					"presentation" : 1,
					"presentation_rect" : [ 398.0, 70.0, 19.0, 20.0 ],
					"text" : "8",
					"textcolor" : [ 1.0, 1.0, 1.0, 1.0 ]
				}

			}
, 			{
				"box" : 				{
					"fontname" : "Menlo Regular",
					"fontsize" : 12.0,
					"frgb" : 0.0,
					"id" : "obj-51",
					"maxclass" : "comment",
					"numinlets" : 1,
					"numoutlets" : 0,
					"patching_rect" : [ 427.0, 635.0, 19.0, 20.0 ],
					"presentation" : 1,
					"presentation_rect" : [ 382.0, 70.0, 19.0, 20.0 ],
					"text" : "7",
					"textcolor" : [ 1.0, 1.0, 1.0, 1.0 ]
				}

			}
, 			{
				"box" : 				{
					"fontname" : "Menlo Regular",
					"fontsize" : 12.0,
					"frgb" : 0.0,
					"id" : "obj-52",
					"maxclass" : "comment",
					"numinlets" : 1,
					"numoutlets" : 0,
					"patching_rect" : [ 410.0, 635.0, 19.0, 20.0 ],
					"presentation" : 1,
					"presentation_rect" : [ 365.0, 70.0, 19.0, 20.0 ],
					"text" : "6",
					"textcolor" : [ 1.0, 1.0, 1.0, 1.0 ]
				}

			}
, 			{
				"box" : 				{
					"fontname" : "Menlo Regular",
					"fontsize" : 12.0,
					"frgb" : 0.0,
					"id" : "obj-54",
					"maxclass" : "comment",
					"numinlets" : 1,
					"numoutlets" : 0,
					"patching_rect" : [ 394.0, 635.0, 19.0, 20.0 ],
					"presentation" : 1,
					"presentation_rect" : [ 349.0, 70.0, 19.0, 20.0 ],
					"text" : "5",
					"textcolor" : [ 1.0, 1.0, 1.0, 1.0 ]
				}

			}
, 			{
				"box" : 				{
					"fontname" : "Menlo Regular",
					"fontsize" : 12.0,
					"frgb" : 0.0,
					"id" : "obj-57",
					"maxclass" : "comment",
					"numinlets" : 1,
					"numoutlets" : 0,
					"patching_rect" : [ 378.0, 635.0, 19.0, 20.0 ],
					"presentation" : 1,
					"presentation_rect" : [ 333.0, 70.0, 19.0, 20.0 ],
					"text" : "4",
					"textcolor" : [ 1.0, 1.0, 1.0, 1.0 ]
				}

			}
, 			{
				"box" : 				{
					"fontname" : "Menlo Regular",
					"fontsize" : 12.0,
					"frgb" : 0.0,
					"id" : "obj-60",
					"maxclass" : "comment",
					"numinlets" : 1,
					"numoutlets" : 0,
					"patching_rect" : [ 362.0, 635.0, 19.0, 20.0 ],
					"presentation" : 1,
					"presentation_rect" : [ 317.0, 70.0, 19.0, 20.0 ],
					"text" : "3",
					"textcolor" : [ 1.0, 1.0, 1.0, 1.0 ]
				}

			}
, 			{
				"box" : 				{
					"fontname" : "Menlo Regular",
					"fontsize" : 12.0,
					"frgb" : 0.0,
					"id" : "obj-62",
					"maxclass" : "comment",
					"numinlets" : 1,
					"numoutlets" : 0,
					"patching_rect" : [ 346.0, 635.0, 19.0, 20.0 ],
					"presentation" : 1,
					"presentation_rect" : [ 301.0, 70.0, 19.0, 20.0 ],
					"text" : "2",
					"textcolor" : [ 1.0, 1.0, 1.0, 1.0 ]
				}

			}
, 			{
				"box" : 				{
					"fontname" : "Menlo Regular",
					"fontsize" : 12.0,
					"frgb" : 0.0,
					"id" : "obj-63",
					"maxclass" : "comment",
					"numinlets" : 1,
					"numoutlets" : 0,
					"patching_rect" : [ 331.0, 635.0, 19.0, 20.0 ],
					"presentation" : 1,
					"presentation_rect" : [ 286.0, 70.0, 19.0, 20.0 ],
					"text" : "1",
					"textcolor" : [ 1.0, 1.0, 1.0, 1.0 ]
				}

			}
, 			{
				"box" : 				{
					"fontname" : "Menlo Regular",
					"fontsize" : 12.0,
					"frgb" : 0.0,
					"id" : "obj-48",
					"maxclass" : "comment",
					"numinlets" : 1,
					"numoutlets" : 0,
					"patching_rect" : [ 311.0, 635.0, 25.0, 20.0 ],
					"presentation" : 1,
					"presentation_rect" : [ 266.0, 70.0, 25.0, 20.0 ],
					"text" : "16",
					"textcolor" : [ 1.0, 1.0, 1.0, 1.0 ]
				}

			}
, 			{
				"box" : 				{
					"fontname" : "Menlo Regular",
					"fontsize" : 12.0,
					"frgb" : 0.0,
					"id" : "obj-47",
					"maxclass" : "comment",
					"numinlets" : 1,
					"numoutlets" : 0,
					"patching_rect" : [ 295.0, 635.0, 25.0, 20.0 ],
					"presentation" : 1,
					"presentation_rect" : [ 250.0, 70.0, 25.0, 20.0 ],
					"text" : "15",
					"textcolor" : [ 1.0, 1.0, 1.0, 1.0 ]
				}

			}
, 			{
				"box" : 				{
					"fontname" : "Menlo Regular",
					"fontsize" : 12.0,
					"frgb" : 0.0,
					"id" : "obj-46",
					"maxclass" : "comment",
					"numinlets" : 1,
					"numoutlets" : 0,
					"patching_rect" : [ 279.0, 635.0, 25.0, 20.0 ],
					"presentation" : 1,
					"presentation_rect" : [ 234.0, 70.0, 25.0, 20.0 ],
					"text" : "14",
					"textcolor" : [ 1.0, 1.0, 1.0, 1.0 ]
				}

			}
, 			{
				"box" : 				{
					"fontname" : "Menlo Regular",
					"fontsize" : 12.0,
					"frgb" : 0.0,
					"id" : "obj-45",
					"maxclass" : "comment",
					"numinlets" : 1,
					"numoutlets" : 0,
					"patching_rect" : [ 263.0, 635.0, 25.0, 20.0 ],
					"presentation" : 1,
					"presentation_rect" : [ 218.0, 70.0, 25.0, 20.0 ],
					"text" : "13",
					"textcolor" : [ 1.0, 1.0, 1.0, 1.0 ]
				}

			}
, 			{
				"box" : 				{
					"fontname" : "Menlo Regular",
					"fontsize" : 12.0,
					"frgb" : 0.0,
					"id" : "obj-44",
					"maxclass" : "comment",
					"numinlets" : 1,
					"numoutlets" : 0,
					"patching_rect" : [ 247.0, 635.0, 25.0, 20.0 ],
					"presentation" : 1,
					"presentation_rect" : [ 202.0, 70.0, 25.0, 20.0 ],
					"text" : "12",
					"textcolor" : [ 1.0, 1.0, 1.0, 1.0 ]
				}

			}
, 			{
				"box" : 				{
					"fontname" : "Menlo Regular",
					"fontsize" : 12.0,
					"frgb" : 0.0,
					"id" : "obj-43",
					"maxclass" : "comment",
					"numinlets" : 1,
					"numoutlets" : 0,
					"patching_rect" : [ 230.0, 635.0, 25.0, 20.0 ],
					"presentation" : 1,
					"presentation_rect" : [ 185.0, 70.0, 25.0, 20.0 ],
					"text" : "11",
					"textcolor" : [ 1.0, 1.0, 1.0, 1.0 ]
				}

			}
, 			{
				"box" : 				{
					"fontname" : "Menlo Regular",
					"fontsize" : 12.0,
					"frgb" : 0.0,
					"id" : "obj-42",
					"maxclass" : "comment",
					"numinlets" : 1,
					"numoutlets" : 0,
					"patching_rect" : [ 214.0, 635.0, 25.0, 20.0 ],
					"presentation" : 1,
					"presentation_rect" : [ 169.0, 70.0, 25.0, 20.0 ],
					"text" : "10",
					"textcolor" : [ 1.0, 1.0, 1.0, 1.0 ]
				}

			}
, 			{
				"box" : 				{
					"fontname" : "Menlo Regular",
					"fontsize" : 12.0,
					"frgb" : 0.0,
					"id" : "obj-41",
					"maxclass" : "comment",
					"numinlets" : 1,
					"numoutlets" : 0,
					"patching_rect" : [ 202.0, 635.0, 19.0, 20.0 ],
					"presentation" : 1,
					"presentation_rect" : [ 157.0, 70.0, 19.0, 20.0 ],
					"text" : "9",
					"textcolor" : [ 1.0, 1.0, 1.0, 1.0 ]
				}

			}
, 			{
				"box" : 				{
					"fontname" : "Menlo Regular",
					"fontsize" : 12.0,
					"frgb" : 0.0,
					"id" : "obj-40",
					"maxclass" : "comment",
					"numinlets" : 1,
					"numoutlets" : 0,
					"patching_rect" : [ 187.0, 635.0, 19.0, 20.0 ],
					"presentation" : 1,
					"presentation_rect" : [ 142.0, 70.0, 19.0, 20.0 ],
					"text" : "8",
					"textcolor" : [ 1.0, 1.0, 1.0, 1.0 ]
				}

			}
, 			{
				"box" : 				{
					"fontname" : "Menlo Regular",
					"fontsize" : 12.0,
					"frgb" : 0.0,
					"id" : "obj-39",
					"maxclass" : "comment",
					"numinlets" : 1,
					"numoutlets" : 0,
					"patching_rect" : [ 171.0, 635.0, 19.0, 20.0 ],
					"presentation" : 1,
					"presentation_rect" : [ 126.0, 70.0, 19.0, 20.0 ],
					"text" : "7",
					"textcolor" : [ 1.0, 1.0, 1.0, 1.0 ]
				}

			}
, 			{
				"box" : 				{
					"fontname" : "Menlo Regular",
					"fontsize" : 12.0,
					"frgb" : 0.0,
					"id" : "obj-38",
					"maxclass" : "comment",
					"numinlets" : 1,
					"numoutlets" : 0,
					"patching_rect" : [ 154.0, 635.0, 19.0, 20.0 ],
					"presentation" : 1,
					"presentation_rect" : [ 109.0, 70.0, 19.0, 20.0 ],
					"text" : "6",
					"textcolor" : [ 1.0, 1.0, 1.0, 1.0 ]
				}

			}
, 			{
				"box" : 				{
					"fontname" : "Menlo Regular",
					"fontsize" : 12.0,
					"frgb" : 0.0,
					"id" : "obj-36",
					"maxclass" : "comment",
					"numinlets" : 1,
					"numoutlets" : 0,
					"patching_rect" : [ 138.0, 635.0, 19.0, 20.0 ],
					"presentation" : 1,
					"presentation_rect" : [ 93.0, 70.0, 19.0, 20.0 ],
					"text" : "5",
					"textcolor" : [ 1.0, 1.0, 1.0, 1.0 ]
				}

			}
, 			{
				"box" : 				{
					"fontname" : "Menlo Regular",
					"fontsize" : 12.0,
					"frgb" : 0.0,
					"id" : "obj-35",
					"maxclass" : "comment",
					"numinlets" : 1,
					"numoutlets" : 0,
					"patching_rect" : [ 122.0, 635.0, 19.0, 20.0 ],
					"presentation" : 1,
					"presentation_rect" : [ 77.0, 70.0, 19.0, 20.0 ],
					"text" : "4",
					"textcolor" : [ 1.0, 1.0, 1.0, 1.0 ]
				}

			}
, 			{
				"box" : 				{
					"fontname" : "Menlo Regular",
					"fontsize" : 12.0,
					"frgb" : 0.0,
					"id" : "obj-34",
					"maxclass" : "comment",
					"numinlets" : 1,
					"numoutlets" : 0,
					"patching_rect" : [ 106.0, 635.0, 19.0, 20.0 ],
					"presentation" : 1,
					"presentation_rect" : [ 61.0, 70.0, 19.0, 20.0 ],
					"text" : "3",
					"textcolor" : [ 1.0, 1.0, 1.0, 1.0 ]
				}

			}
, 			{
				"box" : 				{
					"fontname" : "Menlo Regular",
					"fontsize" : 12.0,
					"frgb" : 0.0,
					"id" : "obj-33",
					"maxclass" : "comment",
					"numinlets" : 1,
					"numoutlets" : 0,
					"patching_rect" : [ 90.0, 635.0, 19.0, 20.0 ],
					"presentation" : 1,
					"presentation_rect" : [ 45.0, 70.0, 19.0, 20.0 ],
					"text" : "2",
					"textcolor" : [ 1.0, 1.0, 1.0, 1.0 ]
				}

			}
, 			{
				"box" : 				{
					"fontname" : "Menlo Regular",
					"fontsize" : 12.0,
					"frgb" : 0.0,
					"id" : "obj-27",
					"maxclass" : "comment",
					"numinlets" : 1,
					"numoutlets" : 0,
					"patching_rect" : [ 75.0, 635.0, 19.0, 20.0 ],
					"presentation" : 1,
					"presentation_rect" : [ 30.0, 70.0, 19.0, 20.0 ],
					"text" : "1",
					"textcolor" : [ 1.0, 1.0, 1.0, 1.0 ]
				}

			}
, 			{
				"box" : 				{
					"active1" : [ 1.0, 1.0, 0.254902, 1.0 ],
					"active2" : [ 0.921569, 0.94902, 0.05098, 1.0 ],
					"bgcolor" : [ 0.0, 0.0, 0.0, 1.0 ],
					"bordercolor" : [ 0.0, 0.0, 0.0, 1.0 ],
					"bubblesize" : 8,
					"circlecolor" : [ 0.666667, 0.698039, 0.717647, 1.0 ],
					"clicked1" : [ 0.0, 0.854902, 0.278431, 1.0 ],
					"clicked2" : [ 0.0, 0.854902, 0.278431, 1.0 ],
					"emptycolor" : [ 0.301961, 0.337255, 0.403922, 1.0 ],
					"id" : "obj-19",
					"maxclass" : "preset",
					"numinlets" : 1,
					"numoutlets" : 4,
					"outlettype" : [ "preset", "int", "preset", "int" ],
					"patching_rect" : [ 60.0, 660.0, 14.0, 92.0 ],
					"presentation" : 1,
					"presentation_rect" : [ 180.0, 30.0, 270.0, 15.0 ],
					"preset_data" : [ 						{
							"number" : 1,
							"data" : [ 256, "obj-10", "matrixctrl", "list", 0, 0, 0, 0, 1, 0, 0, 2, 0, 0, 3, 0, 0, 4, 0, 0, 5, 0, 0, 6, 0, 0, 7, 0, 0, 8, 0, 0, 9, 0, 0, 10, 0, 0, 11, 0, 0, 12, 0, 0, 13, 0, 0, 14, 0, 0, 15, 0, 1, 0, 0, 1, 1, 0, 1, 2, 0, 1, 3, 0, 1, 4, 0, 1, 5, 0, 1, 6, 0, 1, 7, 0, 1, 8, 0, 1, 9, 0, 1, 10, 0, 1, 11, 0, 1, 12, 0, 1, 13, 0, 1, 14, 0, 1, 15, 0, 2, 0, 0, 2, 1, 0, 2, 2, 0, 2, 3, 0, 2, 4, 0, 2, 5, 0, 2, 6, 0, 2, 7, 0, 2, 8, 0, 2, 9, 0, 2, 10, 0, 2, 11, 0, 2, 12, 0, 2, 13, 0, 2, 14, 0, 2, 15, 0, 3, 0, 0, 3, 1, 0, 3, 2, 0, 3, 3, 0, 3, 4, 0, 3, 5, 0, 3, 6, 0, 3, 7, 0, 3, 8, 0, 3, 9, 0, 3, 10, 0, 3, 11, 0, 3, 12, 0, 3, 13, 0, 3, 14, 0, 3, 15, 0, 4, 0, 0, 4, 1, 0, 4, 2, 0, 4, 3, 0, 4, 4, 0, 4, 5, 0, 4, 6, 0, 4, 7, 0, 4, 8, 0, 4, 9, 0, 4, 10, 0, 4, 11, 0, 4, 12, 0, 4, 13, 0, 4, 14, 0, 4, 15, 0, 5, 0, 0, 5, 1, 0, 5, 2, 0, 5, 3, 0, 256, "obj-10", "matrixctrl", "list", 5, 4, 0, 5, 5, 0, 5, 6, 0, 5, 7, 0, 5, 8, 0, 5, 9, 0, 5, 10, 0, 5, 11, 0, 5, 12, 0, 5, 13, 0, 5, 14, 0, 5, 15, 0, 6, 0, 0, 6, 1, 0, 6, 2, 0, 6, 3, 0, 6, 4, 0, 6, 5, 0, 6, 6, 0, 6, 7, 0, 6, 8, 0, 6, 9, 0, 6, 10, 0, 6, 11, 0, 6, 12, 0, 6, 13, 0, 6, 14, 0, 6, 15, 0, 7, 0, 0, 7, 1, 0, 7, 2, 0, 7, 3, 0, 7, 4, 0, 7, 5, 0, 7, 6, 0, 7, 7, 0, 7, 8, 0, 7, 9, 0, 7, 10, 0, 7, 11, 0, 7, 12, 0, 7, 13, 0, 7, 14, 0, 7, 15, 0, 8, 0, 0, 8, 1, 0, 8, 2, 0, 8, 3, 0, 8, 4, 0, 8, 5, 0, 8, 6, 0, 8, 7, 0, 8, 8, 0, 8, 9, 0, 8, 10, 0, 8, 11, 0, 8, 12, 0, 8, 13, 0, 8, 14, 0, 8, 15, 0, 9, 0, 0, 9, 1, 0, 9, 2, 0, 9, 3, 0, 9, 4, 0, 9, 5, 0, 9, 6, 0, 9, 7, 0, 9, 8, 0, 9, 9, 0, 9, 10, 0, 9, 11, 0, 9, 12, 0, 9, 13, 0, 9, 14, 0, 9, 15, 0, 10, 0, 0, 10, 1, 0, 10, 2, 0, 10, 3, 0, 10, 4, 0, 10, 5, 0, 10, 6, 0, 10, 7, 0, 256, "obj-10", "matrixctrl", "list", 10, 8, 0, 10, 9, 0, 10, 10, 0, 10, 11, 0, 10, 12, 0, 10, 13, 0, 10, 14, 0, 10, 15, 0, 11, 0, 0, 11, 1, 0, 11, 2, 0, 11, 3, 0, 11, 4, 0, 11, 5, 0, 11, 6, 0, 11, 7, 0, 11, 8, 0, 11, 9, 0, 11, 10, 0, 11, 11, 0, 11, 12, 0, 11, 13, 0, 11, 14, 0, 11, 15, 0, 12, 0, 0, 12, 1, 0, 12, 2, 0, 12, 3, 0, 12, 4, 0, 12, 5, 0, 12, 6, 0, 12, 7, 0, 12, 8, 0, 12, 9, 0, 12, 10, 0, 12, 11, 0, 12, 12, 0, 12, 13, 0, 12, 14, 0, 12, 15, 0, 13, 0, 0, 13, 1, 0, 13, 2, 0, 13, 3, 0, 13, 4, 0, 13, 5, 0, 13, 6, 0, 13, 7, 0, 13, 8, 0, 13, 9, 0, 13, 10, 0, 13, 11, 0, 13, 12, 0, 13, 13, 0, 13, 14, 0, 13, 15, 0, 14, 0, 0, 14, 1, 0, 14, 2, 0, 14, 3, 0, 14, 4, 0, 14, 5, 0, 14, 6, 0, 14, 7, 0, 14, 8, 0, 14, 9, 0, 14, 10, 0, 14, 11, 0, 14, 12, 0, 14, 13, 0, 14, 14, 0, 14, 15, 0, 15, 0, 0, 15, 1, 0, 15, 2, 0, 15, 3, 0, 15, 4, 0, 15, 5, 0, 15, 6, 0, 15, 7, 0, 15, 8, 0, 15, 9, 0, 15, 10, 0, 15, 11, 0, 256, "obj-10", "matrixctrl", "list", 15, 12, 0, 15, 13, 0, 15, 14, 0, 15, 15, 0, 16, 0, 1, 16, 1, 0, 16, 2, 0, 16, 3, 0, 16, 4, 0, 16, 5, 0, 16, 6, 0, 16, 7, 0, 16, 8, 0, 16, 9, 0, 16, 10, 0, 16, 11, 0, 16, 12, 0, 16, 13, 0, 16, 14, 0, 16, 15, 0, 17, 0, 0, 17, 1, 1, 17, 2, 0, 17, 3, 0, 17, 4, 0, 17, 5, 0, 17, 6, 0, 17, 7, 0, 17, 8, 0, 17, 9, 0, 17, 10, 0, 17, 11, 0, 17, 12, 0, 17, 13, 0, 17, 14, 0, 17, 15, 0, 18, 0, 0, 18, 1, 0, 18, 2, 1, 18, 3, 0, 18, 4, 0, 18, 5, 0, 18, 6, 0, 18, 7, 0, 18, 8, 0, 18, 9, 0, 18, 10, 0, 18, 11, 0, 18, 12, 0, 18, 13, 0, 18, 14, 0, 18, 15, 0, 19, 0, 0, 19, 1, 0, 19, 2, 0, 19, 3, 1, 19, 4, 0, 19, 5, 0, 19, 6, 0, 19, 7, 0, 19, 8, 0, 19, 9, 0, 19, 10, 0, 19, 11, 0, 19, 12, 0, 19, 13, 0, 19, 14, 0, 19, 15, 0, 20, 0, 0, 20, 1, 0, 20, 2, 0, 20, 3, 0, 20, 4, 1, 20, 5, 0, 20, 6, 0, 20, 7, 0, 20, 8, 0, 20, 9, 0, 20, 10, 0, 20, 11, 0, 20, 12, 0, 20, 13, 0, 20, 14, 0, 20, 15, 0, 148, "obj-10", "matrixctrl", "list", 21, 0, 0, 21, 1, 0, 21, 2, 0, 21, 3, 0, 21, 4, 0, 21, 5, 1, 21, 6, 0, 21, 7, 0, 21, 8, 0, 21, 9, 0, 21, 10, 0, 21, 11, 0, 21, 12, 0, 21, 13, 0, 21, 14, 0, 21, 15, 0, 22, 0, 0, 22, 1, 0, 22, 2, 0, 22, 3, 0, 22, 4, 0, 22, 5, 0, 22, 6, 1, 22, 7, 0, 22, 8, 0, 22, 9, 0, 22, 10, 0, 22, 11, 0, 22, 12, 0, 22, 13, 0, 22, 14, 0, 22, 15, 0, 23, 0, 0, 23, 1, 0, 23, 2, 0, 23, 3, 0, 23, 4, 0, 23, 5, 0, 23, 6, 0, 23, 7, 1, 23, 8, 0, 23, 9, 0, 23, 10, 0, 23, 11, 0, 23, 12, 0, 23, 13, 0, 23, 14, 0, 23, 15, 0 ]
						}
, 						{
							"number" : 2,
							"data" : [ 256, "obj-10", "matrixctrl", "list", 0, 0, 0, 0, 1, 0, 0, 2, 0, 0, 3, 0, 0, 4, 0, 0, 5, 0, 0, 6, 0, 0, 7, 0, 0, 8, 0, 0, 9, 0, 0, 10, 0, 0, 11, 0, 0, 12, 0, 0, 13, 0, 0, 14, 0, 0, 15, 0, 0, 16, 0, 0, 17, 0, 0, 18, 0, 0, 19, 0, 1, 0, 0, 1, 1, 0, 1, 2, 0, 1, 3, 0, 1, 4, 0, 1, 5, 0, 1, 6, 0, 1, 7, 0, 1, 8, 0, 1, 9, 0, 1, 10, 0, 1, 11, 0, 1, 12, 0, 1, 13, 0, 1, 14, 0, 1, 15, 0, 1, 16, 0, 1, 17, 0, 1, 18, 0, 1, 19, 0, 2, 0, 0, 2, 1, 0, 2, 2, 0, 2, 3, 0, 2, 4, 0, 2, 5, 0, 2, 6, 0, 2, 7, 0, 2, 8, 0, 2, 9, 0, 2, 10, 0, 2, 11, 0, 2, 12, 0, 2, 13, 0, 2, 14, 0, 2, 15, 0, 2, 16, 0, 2, 17, 0, 2, 18, 0, 2, 19, 0, 3, 0, 0, 3, 1, 0, 3, 2, 0, 3, 3, 0, 3, 4, 0, 3, 5, 0, 3, 6, 0, 3, 7, 0, 3, 8, 0, 3, 9, 0, 3, 10, 0, 3, 11, 0, 3, 12, 0, 3, 13, 0, 3, 14, 0, 3, 15, 0, 3, 16, 0, 3, 17, 0, 3, 18, 0, 3, 19, 0, 4, 0, 0, 4, 1, 0, 4, 2, 0, 4, 3, 0, 256, "obj-10", "matrixctrl", "list", 4, 4, 0, 4, 5, 0, 4, 6, 0, 4, 7, 0, 4, 8, 0, 4, 9, 0, 4, 10, 0, 4, 11, 0, 4, 12, 0, 4, 13, 0, 4, 14, 0, 4, 15, 0, 4, 16, 0, 4, 17, 0, 4, 18, 0, 4, 19, 0, 5, 0, 0, 5, 1, 0, 5, 2, 0, 5, 3, 0, 5, 4, 0, 5, 5, 0, 5, 6, 0, 5, 7, 0, 5, 8, 0, 5, 9, 0, 5, 10, 0, 5, 11, 0, 5, 12, 0, 5, 13, 0, 5, 14, 0, 5, 15, 0, 5, 16, 0, 5, 17, 0, 5, 18, 0, 5, 19, 0, 6, 0, 0, 6, 1, 0, 6, 2, 0, 6, 3, 0, 6, 4, 0, 6, 5, 0, 6, 6, 0, 6, 7, 0, 6, 8, 0, 6, 9, 0, 6, 10, 0, 6, 11, 0, 6, 12, 0, 6, 13, 0, 6, 14, 0, 6, 15, 0, 6, 16, 0, 6, 17, 0, 6, 18, 0, 6, 19, 0, 7, 0, 0, 7, 1, 0, 7, 2, 0, 7, 3, 0, 7, 4, 0, 7, 5, 0, 7, 6, 0, 7, 7, 0, 7, 8, 0, 7, 9, 0, 7, 10, 0, 7, 11, 0, 7, 12, 0, 7, 13, 0, 7, 14, 0, 7, 15, 0, 7, 16, 0, 7, 17, 0, 7, 18, 0, 7, 19, 0, 8, 0, 0, 8, 1, 0, 8, 2, 0, 8, 3, 0, 8, 4, 0, 8, 5, 0, 8, 6, 0, 8, 7, 0, 256, "obj-10", "matrixctrl", "list", 8, 8, 0, 8, 9, 0, 8, 10, 0, 8, 11, 0, 8, 12, 0, 8, 13, 0, 8, 14, 0, 8, 15, 0, 8, 16, 0, 8, 17, 0, 8, 18, 0, 8, 19, 0, 9, 0, 0, 9, 1, 0, 9, 2, 0, 9, 3, 0, 9, 4, 0, 9, 5, 0, 9, 6, 0, 9, 7, 0, 9, 8, 0, 9, 9, 0, 9, 10, 0, 9, 11, 0, 9, 12, 0, 9, 13, 0, 9, 14, 0, 9, 15, 0, 9, 16, 0, 9, 17, 0, 9, 18, 0, 9, 19, 0, 10, 0, 0, 10, 1, 0, 10, 2, 0, 10, 3, 0, 10, 4, 0, 10, 5, 0, 10, 6, 0, 10, 7, 0, 10, 8, 0, 10, 9, 0, 10, 10, 0, 10, 11, 0, 10, 12, 0, 10, 13, 0, 10, 14, 0, 10, 15, 0, 10, 16, 0, 10, 17, 0, 10, 18, 0, 10, 19, 0, 11, 0, 0, 11, 1, 0, 11, 2, 0, 11, 3, 0, 11, 4, 0, 11, 5, 0, 11, 6, 0, 11, 7, 0, 11, 8, 0, 11, 9, 0, 11, 10, 0, 11, 11, 0, 11, 12, 0, 11, 13, 0, 11, 14, 0, 11, 15, 0, 11, 16, 0, 11, 17, 0, 11, 18, 0, 11, 19, 0, 12, 0, 0, 12, 1, 0, 12, 2, 0, 12, 3, 0, 12, 4, 0, 12, 5, 0, 12, 6, 0, 12, 7, 0, 12, 8, 0, 12, 9, 0, 12, 10, 0, 12, 11, 0, 256, "obj-10", "matrixctrl", "list", 12, 12, 0, 12, 13, 0, 12, 14, 0, 12, 15, 0, 12, 16, 0, 12, 17, 0, 12, 18, 0, 12, 19, 0, 13, 0, 0, 13, 1, 0, 13, 2, 0, 13, 3, 0, 13, 4, 0, 13, 5, 0, 13, 6, 0, 13, 7, 0, 13, 8, 0, 13, 9, 0, 13, 10, 0, 13, 11, 0, 13, 12, 0, 13, 13, 0, 13, 14, 0, 13, 15, 0, 13, 16, 0, 13, 17, 0, 13, 18, 0, 13, 19, 0, 14, 0, 0, 14, 1, 0, 14, 2, 0, 14, 3, 0, 14, 4, 0, 14, 5, 0, 14, 6, 0, 14, 7, 0, 14, 8, 0, 14, 9, 0, 14, 10, 0, 14, 11, 0, 14, 12, 0, 14, 13, 0, 14, 14, 0, 14, 15, 0, 14, 16, 0, 14, 17, 0, 14, 18, 0, 14, 19, 0, 15, 0, 0, 15, 1, 0, 15, 2, 0, 15, 3, 0, 15, 4, 0, 15, 5, 0, 15, 6, 0, 15, 7, 0, 15, 8, 0, 15, 9, 0, 15, 10, 0, 15, 11, 0, 15, 12, 0, 15, 13, 0, 15, 14, 0, 15, 15, 0, 15, 16, 0, 15, 17, 0, 15, 18, 0, 15, 19, 0, 16, 0, 1, 16, 1, 0, 16, 2, 0, 16, 3, 0, 16, 4, 0, 16, 5, 0, 16, 6, 0, 16, 7, 0, 16, 8, 0, 16, 9, 0, 16, 10, 0, 16, 11, 0, 16, 12, 0, 16, 13, 0, 16, 14, 0, 16, 15, 0, 256, "obj-10", "matrixctrl", "list", 16, 16, 1, 16, 17, 0, 16, 18, 0, 16, 19, 0, 17, 0, 0, 17, 1, 1, 17, 2, 0, 17, 3, 0, 17, 4, 0, 17, 5, 0, 17, 6, 0, 17, 7, 0, 17, 8, 0, 17, 9, 0, 17, 10, 0, 17, 11, 0, 17, 12, 0, 17, 13, 0, 17, 14, 0, 17, 15, 0, 17, 16, 0, 17, 17, 1, 17, 18, 0, 17, 19, 0, 18, 0, 0, 18, 1, 0, 18, 2, 1, 18, 3, 0, 18, 4, 0, 18, 5, 0, 18, 6, 0, 18, 7, 0, 18, 8, 0, 18, 9, 0, 18, 10, 0, 18, 11, 0, 18, 12, 0, 18, 13, 0, 18, 14, 0, 18, 15, 0, 18, 16, 0, 18, 17, 0, 18, 18, 1, 18, 19, 0, 19, 0, 0, 19, 1, 0, 19, 2, 0, 19, 3, 1, 19, 4, 0, 19, 5, 0, 19, 6, 0, 19, 7, 0, 19, 8, 0, 19, 9, 0, 19, 10, 0, 19, 11, 0, 19, 12, 0, 19, 13, 0, 19, 14, 0, 19, 15, 0, 19, 16, 0, 19, 17, 0, 19, 18, 0, 19, 19, 1, 20, 0, 0, 20, 1, 0, 20, 2, 0, 20, 3, 0, 20, 4, 1, 20, 5, 0, 20, 6, 0, 20, 7, 0, 20, 8, 0, 20, 9, 0, 20, 10, 0, 20, 11, 0, 20, 12, 0, 20, 13, 0, 20, 14, 0, 20, 15, 0, 20, 16, 0, 20, 17, 0, 20, 18, 0, 20, 19, 0, 184, "obj-10", "matrixctrl", "list", 21, 0, 0, 21, 1, 0, 21, 2, 0, 21, 3, 0, 21, 4, 0, 21, 5, 1, 21, 6, 0, 21, 7, 0, 21, 8, 0, 21, 9, 0, 21, 10, 0, 21, 11, 0, 21, 12, 0, 21, 13, 0, 21, 14, 0, 21, 15, 0, 21, 16, 0, 21, 17, 0, 21, 18, 0, 21, 19, 0, 22, 0, 0, 22, 1, 0, 22, 2, 0, 22, 3, 0, 22, 4, 0, 22, 5, 0, 22, 6, 1, 22, 7, 0, 22, 8, 0, 22, 9, 0, 22, 10, 0, 22, 11, 0, 22, 12, 0, 22, 13, 0, 22, 14, 0, 22, 15, 0, 22, 16, 0, 22, 17, 0, 22, 18, 0, 22, 19, 0, 23, 0, 0, 23, 1, 0, 23, 2, 0, 23, 3, 0, 23, 4, 0, 23, 5, 0, 23, 6, 0, 23, 7, 1, 23, 8, 0, 23, 9, 0, 23, 10, 0, 23, 11, 0, 23, 12, 0, 23, 13, 0, 23, 14, 0, 23, 15, 0, 23, 16, 0, 23, 17, 0, 23, 18, 0, 23, 19, 0 ]
						}
 ],
					"prototypename" : "M4L.V",
					"stored1" : [ 0.984314, 0.819608, 0.05098, 1.0 ],
					"stored2" : [ 0.984314, 0.819608, 0.05098, 1.0 ],
					"textcolor" : [ 1.0, 1.0, 1.0, 1.0 ]
				}

			}
, 			{
				"box" : 				{
					"autosize" : 1,
					"cellpict" : "M4L.matrixctrl.transp.png",
					"columns" : 24,
					"horizontalmargin" : 0,
					"id" : "obj-10",
					"invisiblebkgnd" : 1,
					"maxclass" : "matrixctrl",
					"numinlets" : 1,
					"numoutlets" : 2,
					"outlettype" : [ "list", "list" ],
					"parameter_enable" : 0,
					"patching_rect" : [ 75.0, 660.0, 384.0, 320.0 ],
					"presentation" : 1,
					"presentation_rect" : [ 30.0, 95.0, 384.0, 320.0 ],
					"rows" : 20,
					"scale" : 0,
					"verticalmargin" : 0
				}

			}
, 			{
				"box" : 				{
					"fontname" : "Menlo Regular",
					"fontsize" : 12.0,
					"id" : "obj-9",
					"maxclass" : "newobj",
					"numinlets" : 24,
					"numoutlets" : 21,
					"outlettype" : [ "signal", "signal", "signal", "signal", "signal", "signal", "signal", "signal", "signal", "signal", "signal", "signal", "signal", "signal", "signal", "signal", "signal", "signal", "signal", "signal", "list" ],
					"patching_rect" : [ 30.0, 355.0, 615.0, 20.0 ],
					"text" : "matrix~ 24 20 1."
				}

			}
, 			{
				"box" : 				{
					"fontname" : "Menlo Regular",
					"fontsize" : 12.0,
					"id" : "obj-4",
					"maxclass" : "newobj",
					"numinlets" : 1,
					"numoutlets" : 8,
					"outlettype" : [ "signal", "signal", "signal", "signal", "signal", "signal", "signal", "signal" ],
					"patching_rect" : [ 435.0, 275.0, 195.0, 20.0 ],
					"text" : "sp_player"
				}

			}
, 			{
				"box" : 				{
					"fontname" : "Menlo Regular",
					"fontsize" : 11.0,
					"id" : "obj-37",
					"maxclass" : "message",
					"numinlets" : 2,
					"numoutlets" : 1,
					"outlettype" : [ "" ],
					"patching_rect" : [ 630.0, 90.0, 44.0, 17.0 ],
					"text" : "clear"
				}

			}
, 			{
				"box" : 				{
					"fontname" : "Menlo Regular",
					"fontsize" : 12.0,
					"id" : "obj-28",
					"maxclass" : "newobj",
					"numinlets" : 1,
					"numoutlets" : 1,
					"outlettype" : [ "" ],
					"patching_rect" : [ 660.0, 35.0, 68.0, 20.0 ],
					"text" : "AEM_bose"
				}

			}
, 			{
				"box" : 				{
					"fontname" : "Menlo Regular",
					"fontsize" : 11.0,
					"id" : "obj-22",
					"maxclass" : "newobj",
					"numinlets" : 8,
					"numoutlets" : 16,
					"outlettype" : [ "signal", "signal", "signal", "signal", "signal", "signal", "signal", "signal", "signal", "signal", "signal", "signal", "signal", "signal", "signal", "signal" ],
					"patching_rect" : [ 30.0, 435.0, 465.0, 19.0 ],
					"saved_object_attributes" : 					{
						"active" : [ 1, 1, 1, 1, 1, 1, 1, 1 ],
						"aed_scale" : 0.0,
						"center_att_db" : 0.007757,
						"center_curve" : 0.0,
						"center_size" : 0.0,
						"coord_angles" : 0,
						"coord_system" : 0,
						"db_unit" : 0.0,
						"dist_att" : 0.0,
						"distance_mode" : 1,
						"gain" : 0.0,
						"interpolation" : 1,
						"order" : 3,
						"type" : 1,
						"xyz_scale" : 0.0
					}
,
					"text" : "ambiencode~ 3 8"
				}

			}
, 			{
				"box" : 				{
					"fontname" : "Menlo Regular",
					"fontsize" : 11.0,
					"id" : "obj-26",
					"maxclass" : "newobj",
					"numinlets" : 16,
					"numoutlets" : 8,
					"outlettype" : [ "signal", "signal", "signal", "signal", "signal", "signal", "signal", "signal" ],
					"patching_rect" : [ 30.0, 500.0, 221.5, 19.0 ],
					"saved_object_attributes" : 					{
						"active" : [ 1, 1, 1, 1, 1, 1, 1, 1 ],
						"aed_scale" : 0.0,
						"coord_angles" : 0,
						"coord_system" : 0,
						"gain" : 0.0,
						"order" : 3,
						"orderweight" : [ 0.0, 0.0, 0.0, 0.0 ],
						"type" : 1,
						"xyz_scale" : 0.0
					}
,
					"text" : "ambidecode~ 3 8"
				}

			}
, 			{
				"box" : 				{
					"fontname" : "Menlo Regular",
					"fontsize" : 12.0,
					"id" : "obj-20",
					"maxclass" : "newobj",
					"numinlets" : 1,
					"numoutlets" : 1,
					"outlettype" : [ "" ],
					"patching_rect" : [ 75.0, 5.0, 104.0, 20.0 ],
					"text" : "loadmess open"
				}

			}
, 			{
				"box" : 				{
					"fontname" : "Menlo Regular",
					"fontsize" : 12.0,
					"id" : "obj-16",
					"maxclass" : "newobj",
					"numinlets" : 1,
					"numoutlets" : 1,
					"outlettype" : [ "" ],
					"patching_rect" : [ 135.0, 35.0, 68.0, 20.0 ],
					"text" : "pcontrol"
				}

			}
, 			{
				"box" : 				{
					"bgcolor" : [ 1.0, 1.0, 1.0, 1.0 ],
					"bubbletextmargin" : 10,
					"fontname" : "Menlo Regular",
					"fontsize" : 12.0,
					"frgb" : 0.0,
					"id" : "obj-11",
					"maxclass" : "comment",
					"numinlets" : 1,
					"numoutlets" : 0,
					"patching_rect" : [ 315.0, 205.0, 195.0, 20.0 ],
					"text" : "// record up to 20ch mono",
					"textcolor" : [ 0.247059, 0.247059, 0.247059, 1.0 ]
				}

			}
, 			{
				"box" : 				{
					"fontname" : "Menlo Regular",
					"fontsize" : 12.0,
					"id" : "obj-2",
					"maxclass" : "newobj",
					"numinlets" : 20,
					"numoutlets" : 0,
					"patching_rect" : [ 30.0, 185.0, 480.0, 20.0 ],
					"text" : "sp_recorder"
				}

			}
, 			{
				"box" : 				{
					"bgcolor" : [ 1.0, 1.0, 1.0, 1.0 ],
					"bubbletextmargin" : 10,
					"fontname" : "Menlo Regular",
					"fontsize" : 12.0,
					"frgb" : 0.0,
					"id" : "obj-5",
					"maxclass" : "comment",
					"numinlets" : 1,
					"numoutlets" : 0,
					"patching_rect" : [ 240.0, 90.0, 175.0, 20.0 ],
					"text" : "// send~ adc1 to adc16",
					"textcolor" : [ 0.247059, 0.247059, 0.247059, 1.0 ]
				}

			}
, 			{
				"box" : 				{
					"id" : "obj-3",
					"maxclass" : "toggle",
					"numinlets" : 1,
					"numoutlets" : 1,
					"outlettype" : [ "int" ],
					"parameter_enable" : 0,
					"patching_rect" : [ 30.0, 10.0, 30.0, 30.0 ]
				}

			}
, 			{
				"box" : 				{
					"fontname" : "Menlo Regular",
					"fontsize" : 12.0,
					"id" : "obj-1",
					"maxclass" : "newobj",
					"numinlets" : 1,
					"numoutlets" : 16,
					"outlettype" : [ "signal", "signal", "signal", "signal", "signal", "signal", "signal", "signal", "signal", "signal", "signal", "signal", "signal", "signal", "signal", "signal" ],
					"patching_rect" : [ 30.0, 110.0, 390.0, 20.0 ],
					"text" : "sp_inputs"
				}

			}
, 			{
				"box" : 				{
					"bgcolor" : [ 0.003851, 0.0, 0.0, 1.0 ],
					"border" : 2,
					"bordercolor" : [ 1.0, 1.0, 1.0, 1.0 ],
					"id" : "obj-67",
					"maxclass" : "panel",
					"numinlets" : 1,
					"numoutlets" : 0,
					"patching_rect" : [ 30.0, 55.0, 31.333344, 30.0 ],
					"presentation" : 1,
					"presentation_rect" : [ 15.0, 25.0, 450.0, 405.0 ],
					"rounded" : 12
				}

			}
, 			{
				"box" : 				{
					"attr" : "type",
					"fontname" : "Menlo Regular",
					"fontsize" : 12.0,
					"id" : "obj-8",
					"maxclass" : "attrui",
					"numinlets" : 1,
					"numoutlets" : 1,
					"outlettype" : [ "" ],
					"patching_rect" : [ 750.0, 475.0, 300.0, 20.0 ],
					"presentation" : 1,
					"presentation_rect" : [ 15.0, 440.0, 300.0, 20.0 ]
				}

			}
, 			{
				"box" : 				{
					"attr" : "order",
					"fontname" : "Menlo Regular",
					"fontsize" : 12.0,
					"id" : "obj-13",
					"maxclass" : "attrui",
					"numinlets" : 1,
					"numoutlets" : 1,
					"outlettype" : [ "" ],
					"patching_rect" : [ 750.0, 450.0, 150.0, 20.0 ],
					"presentation" : 1,
					"presentation_rect" : [ 15.0, 465.0, 150.0, 20.0 ]
				}

			}
 ],
		"lines" : [ 			{
				"patchline" : 				{
					"destination" : [ "obj-2", 15 ],
					"disabled" : 0,
					"hidden" : 0,
					"midpoints" : [ 410.5, 171.0, 403.447357, 171.0 ],
					"source" : [ "obj-1", 15 ]
				}

			}
, 			{
				"patchline" : 				{
					"destination" : [ "obj-2", 14 ],
					"disabled" : 0,
					"hidden" : 0,
					"midpoints" : [ 385.766663, 171.0, 379.184204, 171.0 ],
					"source" : [ "obj-1", 14 ]
				}

			}
, 			{
				"patchline" : 				{
					"destination" : [ "obj-2", 13 ],
					"disabled" : 0,
					"hidden" : 0,
					"midpoints" : [ 361.033325, 171.0, 354.921051, 171.0 ],
					"source" : [ "obj-1", 13 ]
				}

			}
, 			{
				"patchline" : 				{
					"destination" : [ "obj-2", 12 ],
					"disabled" : 0,
					"hidden" : 0,
					"midpoints" : [ 336.299988, 171.0, 330.657898, 171.0 ],
					"source" : [ "obj-1", 12 ]
				}

			}
, 			{
				"patchline" : 				{
					"destination" : [ "obj-2", 11 ],
					"disabled" : 0,
					"hidden" : 0,
					"midpoints" : [ 311.566681, 180.0, 306.394745, 180.0 ],
					"source" : [ "obj-1", 11 ]
				}

			}
, 			{
				"patchline" : 				{
					"destination" : [ "obj-2", 10 ],
					"disabled" : 0,
					"hidden" : 0,
					"midpoints" : [ 286.833344, 180.0, 282.131592, 180.0 ],
					"source" : [ "obj-1", 10 ]
				}

			}
, 			{
				"patchline" : 				{
					"destination" : [ "obj-2", 9 ],
					"disabled" : 0,
					"hidden" : 0,
					"midpoints" : [ 262.100006, 171.0, 257.868408, 171.0 ],
					"source" : [ "obj-1", 9 ]
				}

			}
, 			{
				"patchline" : 				{
					"destination" : [ "obj-2", 8 ],
					"disabled" : 0,
					"hidden" : 0,
					"midpoints" : [ 237.366669, 171.0, 233.60527, 171.0 ],
					"source" : [ "obj-1", 8 ]
				}

			}
, 			{
				"patchline" : 				{
					"destination" : [ "obj-2", 7 ],
					"disabled" : 0,
					"hidden" : 0,
					"midpoints" : [ 212.633331, 180.0, 209.342102, 180.0 ],
					"source" : [ "obj-1", 7 ]
				}

			}
, 			{
				"patchline" : 				{
					"destination" : [ "obj-2", 6 ],
					"disabled" : 0,
					"hidden" : 0,
					"midpoints" : [ 187.899994, 180.0, 185.078949, 180.0 ],
					"source" : [ "obj-1", 6 ]
				}

			}
, 			{
				"patchline" : 				{
					"destination" : [ "obj-2", 5 ],
					"disabled" : 0,
					"hidden" : 0,
					"midpoints" : [ 163.166672, 180.0, 160.815796, 180.0 ],
					"source" : [ "obj-1", 5 ]
				}

			}
, 			{
				"patchline" : 				{
					"destination" : [ "obj-2", 4 ],
					"disabled" : 0,
					"hidden" : 0,
					"midpoints" : [ 138.433334, 180.0, 136.552628, 180.0 ],
					"source" : [ "obj-1", 4 ]
				}

			}
, 			{
				"patchline" : 				{
					"destination" : [ "obj-2", 3 ],
					"disabled" : 0,
					"hidden" : 0,
					"midpoints" : [ 113.699997, 132.0, 112.289474, 132.0 ],
					"source" : [ "obj-1", 3 ]
				}

			}
, 			{
				"patchline" : 				{
					"destination" : [ "obj-2", 2 ],
					"disabled" : 0,
					"hidden" : 0,
					"midpoints" : [ 88.966667, 132.0, 88.026314, 132.0 ],
					"source" : [ "obj-1", 2 ]
				}

			}
, 			{
				"patchline" : 				{
					"destination" : [ "obj-2", 1 ],
					"disabled" : 0,
					"hidden" : 0,
					"midpoints" : [ 64.23333, 132.0, 63.763157, 132.0 ],
					"source" : [ "obj-1", 1 ]
				}

			}
, 			{
				"patchline" : 				{
					"destination" : [ "obj-2", 0 ],
					"disabled" : 0,
					"hidden" : 0,
					"midpoints" : [ 39.5, 132.0, 39.5, 132.0 ],
					"source" : [ "obj-1", 0 ]
				}

			}
, 			{
				"patchline" : 				{
					"destination" : [ "obj-9", 15 ],
					"disabled" : 0,
					"hidden" : 0,
					"midpoints" : [ 410.5, 171.0, 522.0, 171.0, 522.0, 261.0, 428.195648, 261.0 ],
					"source" : [ "obj-1", 15 ]
				}

			}
, 			{
				"patchline" : 				{
					"destination" : [ "obj-9", 14 ],
					"disabled" : 0,
					"hidden" : 0,
					"midpoints" : [ 385.766663, 171.0, 522.0, 171.0, 522.0, 261.0, 402.282623, 261.0 ],
					"source" : [ "obj-1", 14 ]
				}

			}
, 			{
				"patchline" : 				{
					"destination" : [ "obj-9", 13 ],
					"disabled" : 0,
					"hidden" : 0,
					"midpoints" : [ 361.033325, 171.0, 522.0, 171.0, 522.0, 261.0, 376.369568, 261.0 ],
					"source" : [ "obj-1", 13 ]
				}

			}
, 			{
				"patchline" : 				{
					"destination" : [ "obj-9", 12 ],
					"disabled" : 0,
					"hidden" : 0,
					"midpoints" : [ 336.299988, 171.0, 522.0, 171.0, 522.0, 261.0, 350.456512, 261.0 ],
					"source" : [ "obj-1", 12 ]
				}

			}
, 			{
				"patchline" : 				{
					"destination" : [ "obj-9", 11 ],
					"disabled" : 0,
					"hidden" : 0,
					"midpoints" : [ 311.566681, 171.0, 522.0, 171.0, 522.0, 261.0, 324.543488, 261.0 ],
					"source" : [ "obj-1", 11 ]
				}

			}
, 			{
				"patchline" : 				{
					"destination" : [ "obj-9", 10 ],
					"disabled" : 0,
					"hidden" : 0,
					"midpoints" : [ 286.833344, 171.0, 522.0, 171.0, 522.0, 261.0, 298.630432, 261.0 ],
					"source" : [ "obj-1", 10 ]
				}

			}
, 			{
				"patchline" : 				{
					"destination" : [ "obj-9", 9 ],
					"disabled" : 0,
					"hidden" : 0,
					"midpoints" : [ 262.100006, 171.0, 15.0, 171.0, 15.0, 342.0, 272.717377, 342.0 ],
					"source" : [ "obj-1", 9 ]
				}

			}
, 			{
				"patchline" : 				{
					"destination" : [ "obj-9", 8 ],
					"disabled" : 0,
					"hidden" : 0,
					"midpoints" : [ 237.366669, 171.0, 15.0, 171.0, 15.0, 342.0, 246.804352, 342.0 ],
					"source" : [ "obj-1", 8 ]
				}

			}
, 			{
				"patchline" : 				{
					"destination" : [ "obj-9", 7 ],
					"disabled" : 0,
					"hidden" : 0,
					"midpoints" : [ 212.633331, 171.0, 15.0, 171.0, 15.0, 342.0, 220.891312, 342.0 ],
					"source" : [ "obj-1", 7 ]
				}

			}
, 			{
				"patchline" : 				{
					"destination" : [ "obj-9", 6 ],
					"disabled" : 0,
					"hidden" : 0,
					"midpoints" : [ 187.899994, 171.0, 15.0, 171.0, 15.0, 342.0, 194.978256, 342.0 ],
					"source" : [ "obj-1", 6 ]
				}

			}
, 			{
				"patchline" : 				{
					"destination" : [ "obj-9", 5 ],
					"disabled" : 0,
					"hidden" : 0,
					"midpoints" : [ 163.166672, 171.0, 15.0, 171.0, 15.0, 342.0, 169.065216, 342.0 ],
					"source" : [ "obj-1", 5 ]
				}

			}
, 			{
				"patchline" : 				{
					"destination" : [ "obj-9", 4 ],
					"disabled" : 0,
					"hidden" : 0,
					"midpoints" : [ 138.433334, 171.0, 15.0, 171.0, 15.0, 342.0, 143.152176, 342.0 ],
					"source" : [ "obj-1", 4 ]
				}

			}
, 			{
				"patchline" : 				{
					"destination" : [ "obj-9", 3 ],
					"disabled" : 0,
					"hidden" : 0,
					"midpoints" : [ 113.699997, 171.0, 15.0, 171.0, 15.0, 342.0, 117.239128, 342.0 ],
					"source" : [ "obj-1", 3 ]
				}

			}
, 			{
				"patchline" : 				{
					"destination" : [ "obj-9", 2 ],
					"disabled" : 0,
					"hidden" : 0,
					"midpoints" : [ 88.966667, 171.0, 15.0, 171.0, 15.0, 342.0, 91.326088, 342.0 ],
					"source" : [ "obj-1", 2 ]
				}

			}
, 			{
				"patchline" : 				{
					"destination" : [ "obj-9", 1 ],
					"disabled" : 0,
					"hidden" : 0,
					"midpoints" : [ 64.23333, 171.0, 15.0, 171.0, 15.0, 342.0, 65.41304, 342.0 ],
					"source" : [ "obj-1", 1 ]
				}

			}
, 			{
				"patchline" : 				{
					"destination" : [ "obj-9", 0 ],
					"disabled" : 0,
					"hidden" : 0,
					"midpoints" : [ 39.5, 171.0, 15.0, 171.0, 15.0, 342.0, 39.5, 342.0 ],
					"source" : [ "obj-1", 0 ]
				}

			}
, 			{
				"patchline" : 				{
					"destination" : [ "obj-9", 0 ],
					"disabled" : 0,
					"hidden" : 0,
					"midpoints" : [ 84.5, 918.0, 15.0, 918.0, 15.0, 351.0, 39.5, 351.0 ],
					"source" : [ "obj-10", 0 ]
				}

			}
, 			{
				"patchline" : 				{
					"destination" : [ "obj-22", 0 ],
					"disabled" : 0,
					"hidden" : 0,
					"source" : [ "obj-13", 0 ]
				}

			}
, 			{
				"patchline" : 				{
					"destination" : [ "obj-26", 0 ],
					"disabled" : 0,
					"hidden" : 0,
					"source" : [ "obj-13", 0 ]
				}

			}
, 			{
				"patchline" : 				{
					"destination" : [ "obj-1", 0 ],
					"disabled" : 0,
					"hidden" : 0,
					"midpoints" : [ 144.5, 96.0, 39.5, 96.0 ],
					"source" : [ "obj-16", 0 ]
				}

			}
, 			{
				"patchline" : 				{
					"destination" : [ "obj-2", 0 ],
					"disabled" : 0,
					"hidden" : 0,
					"midpoints" : [ 144.5, 96.0, 15.0, 96.0, 15.0, 171.0, 39.5, 171.0 ],
					"source" : [ "obj-16", 0 ]
				}

			}
, 			{
				"patchline" : 				{
					"destination" : [ "obj-28", 0 ],
					"disabled" : 0,
					"hidden" : 0,
					"midpoints" : [ 144.5, 66.0, 645.0, 66.0, 645.0, 30.0, 669.5, 30.0 ],
					"source" : [ "obj-16", 0 ]
				}

			}
, 			{
				"patchline" : 				{
					"destination" : [ "obj-31", 0 ],
					"disabled" : 0,
					"hidden" : 0,
					"source" : [ "obj-16", 0 ]
				}

			}
, 			{
				"patchline" : 				{
					"destination" : [ "obj-4", 0 ],
					"disabled" : 0,
					"hidden" : 0,
					"midpoints" : [ 144.5, 96.0, 15.0, 96.0, 15.0, 261.0, 444.5, 261.0 ],
					"source" : [ "obj-16", 0 ]
				}

			}
, 			{
				"patchline" : 				{
					"destination" : [ "obj-6", 0 ],
					"disabled" : 0,
					"hidden" : 0,
					"midpoints" : [ 144.5, 96.0, 15.0, 96.0, 15.0, 525.0, 39.5, 525.0 ],
					"source" : [ "obj-16", 0 ]
				}

			}
, 			{
				"patchline" : 				{
					"destination" : [ "obj-7", 0 ],
					"disabled" : 0,
					"hidden" : 0,
					"source" : [ "obj-16", 0 ]
				}

			}
, 			{
				"patchline" : 				{
					"destination" : [ "obj-10", 0 ],
					"disabled" : 0,
					"hidden" : 0,
					"midpoints" : [ 62.400002, 753.0, 45.0, 753.0, 45.0, 657.0, 84.5, 657.0 ],
					"source" : [ "obj-19", 0 ]
				}

			}
, 			{
				"patchline" : 				{
					"destination" : [ "obj-16", 0 ],
					"disabled" : 0,
					"hidden" : 0,
					"midpoints" : [ 84.5, 30.0, 144.5, 30.0 ],
					"source" : [ "obj-20", 0 ]
				}

			}
, 			{
				"patchline" : 				{
					"destination" : [ "obj-6", 25 ],
					"disabled" : 0,
					"hidden" : 0,
					"source" : [ "obj-21", 0 ]
				}

			}
, 			{
				"patchline" : 				{
					"destination" : [ "obj-6", 24 ],
					"disabled" : 0,
					"hidden" : 0,
					"source" : [ "obj-21", 0 ]
				}

			}
, 			{
				"patchline" : 				{
					"destination" : [ "obj-6", 23 ],
					"disabled" : 0,
					"hidden" : 0,
					"source" : [ "obj-21", 0 ]
				}

			}
, 			{
				"patchline" : 				{
					"destination" : [ "obj-6", 22 ],
					"disabled" : 0,
					"hidden" : 0,
					"source" : [ "obj-21", 0 ]
				}

			}
, 			{
				"patchline" : 				{
					"destination" : [ "obj-6", 21 ],
					"disabled" : 0,
					"hidden" : 0,
					"source" : [ "obj-21", 0 ]
				}

			}
, 			{
				"patchline" : 				{
					"destination" : [ "obj-6", 20 ],
					"disabled" : 0,
					"hidden" : 0,
					"source" : [ "obj-21", 0 ]
				}

			}
, 			{
				"patchline" : 				{
					"destination" : [ "obj-6", 19 ],
					"disabled" : 0,
					"hidden" : 0,
					"source" : [ "obj-21", 0 ]
				}

			}
, 			{
				"patchline" : 				{
					"destination" : [ "obj-6", 18 ],
					"disabled" : 0,
					"hidden" : 0,
					"source" : [ "obj-21", 0 ]
				}

			}
, 			{
				"patchline" : 				{
					"destination" : [ "obj-6", 17 ],
					"disabled" : 0,
					"hidden" : 0,
					"source" : [ "obj-21", 0 ]
				}

			}
, 			{
				"patchline" : 				{
					"destination" : [ "obj-6", 16 ],
					"disabled" : 0,
					"hidden" : 0,
					"source" : [ "obj-21", 0 ]
				}

			}
, 			{
				"patchline" : 				{
					"destination" : [ "obj-6", 15 ],
					"disabled" : 0,
					"hidden" : 0,
					"source" : [ "obj-21", 0 ]
				}

			}
, 			{
				"patchline" : 				{
					"destination" : [ "obj-6", 14 ],
					"disabled" : 0,
					"hidden" : 0,
					"source" : [ "obj-21", 0 ]
				}

			}
, 			{
				"patchline" : 				{
					"destination" : [ "obj-6", 13 ],
					"disabled" : 0,
					"hidden" : 0,
					"source" : [ "obj-21", 0 ]
				}

			}
, 			{
				"patchline" : 				{
					"destination" : [ "obj-6", 12 ],
					"disabled" : 0,
					"hidden" : 0,
					"source" : [ "obj-21", 0 ]
				}

			}
, 			{
				"patchline" : 				{
					"destination" : [ "obj-6", 11 ],
					"disabled" : 0,
					"hidden" : 0,
					"source" : [ "obj-21", 0 ]
				}

			}
, 			{
				"patchline" : 				{
					"destination" : [ "obj-6", 10 ],
					"disabled" : 0,
					"hidden" : 0,
					"source" : [ "obj-21", 0 ]
				}

			}
, 			{
				"patchline" : 				{
					"destination" : [ "obj-6", 9 ],
					"disabled" : 0,
					"hidden" : 0,
					"source" : [ "obj-21", 0 ]
				}

			}
, 			{
				"patchline" : 				{
					"destination" : [ "obj-6", 8 ],
					"disabled" : 0,
					"hidden" : 0,
					"source" : [ "obj-21", 0 ]
				}

			}
, 			{
				"patchline" : 				{
					"destination" : [ "obj-6", 7 ],
					"disabled" : 0,
					"hidden" : 0,
					"source" : [ "obj-21", 0 ]
				}

			}
, 			{
				"patchline" : 				{
					"destination" : [ "obj-6", 6 ],
					"disabled" : 0,
					"hidden" : 0,
					"source" : [ "obj-21", 0 ]
				}

			}
, 			{
				"patchline" : 				{
					"destination" : [ "obj-6", 5 ],
					"disabled" : 0,
					"hidden" : 0,
					"source" : [ "obj-21", 0 ]
				}

			}
, 			{
				"patchline" : 				{
					"destination" : [ "obj-6", 4 ],
					"disabled" : 0,
					"hidden" : 0,
					"source" : [ "obj-21", 0 ]
				}

			}
, 			{
				"patchline" : 				{
					"destination" : [ "obj-2", 19 ],
					"disabled" : 0,
					"hidden" : 0,
					"midpoints" : [ 128.699997, 456.0, 15.0, 456.0, 15.0, 171.0, 500.5, 171.0 ],
					"source" : [ "obj-22", 3 ]
				}

			}
, 			{
				"patchline" : 				{
					"destination" : [ "obj-2", 18 ],
					"disabled" : 0,
					"hidden" : 0,
					"midpoints" : [ 98.966667, 456.0, 15.0, 456.0, 15.0, 171.0, 476.236847, 171.0 ],
					"source" : [ "obj-22", 2 ]
				}

			}
, 			{
				"patchline" : 				{
					"destination" : [ "obj-2", 17 ],
					"disabled" : 0,
					"hidden" : 0,
					"midpoints" : [ 69.23333, 456.0, 15.0, 456.0, 15.0, 171.0, 451.973694, 171.0 ],
					"source" : [ "obj-22", 1 ]
				}

			}
, 			{
				"patchline" : 				{
					"destination" : [ "obj-2", 16 ],
					"disabled" : 0,
					"hidden" : 0,
					"midpoints" : [ 39.5, 456.0, 15.0, 456.0, 15.0, 171.0, 427.710541, 171.0 ],
					"source" : [ "obj-22", 0 ]
				}

			}
, 			{
				"patchline" : 				{
					"destination" : [ "obj-26", 15 ],
					"disabled" : 0,
					"hidden" : 0,
					"midpoints" : [ 485.5, 456.0, 242.0, 456.0 ],
					"source" : [ "obj-22", 15 ]
				}

			}
, 			{
				"patchline" : 				{
					"destination" : [ "obj-26", 14 ],
					"disabled" : 0,
					"hidden" : 0,
					"midpoints" : [ 455.766663, 456.0, 228.5, 456.0 ],
					"source" : [ "obj-22", 14 ]
				}

			}
, 			{
				"patchline" : 				{
					"destination" : [ "obj-26", 13 ],
					"disabled" : 0,
					"hidden" : 0,
					"midpoints" : [ 426.033325, 456.0, 215.0, 456.0 ],
					"source" : [ "obj-22", 13 ]
				}

			}
, 			{
				"patchline" : 				{
					"destination" : [ "obj-26", 12 ],
					"disabled" : 0,
					"hidden" : 0,
					"midpoints" : [ 396.299988, 456.0, 201.5, 456.0 ],
					"source" : [ "obj-22", 12 ]
				}

			}
, 			{
				"patchline" : 				{
					"destination" : [ "obj-26", 11 ],
					"disabled" : 0,
					"hidden" : 0,
					"midpoints" : [ 366.566681, 456.0, 188.0, 456.0 ],
					"source" : [ "obj-22", 11 ]
				}

			}
, 			{
				"patchline" : 				{
					"destination" : [ "obj-26", 10 ],
					"disabled" : 0,
					"hidden" : 0,
					"midpoints" : [ 336.833344, 456.0, 174.5, 456.0 ],
					"source" : [ "obj-22", 10 ]
				}

			}
, 			{
				"patchline" : 				{
					"destination" : [ "obj-26", 9 ],
					"disabled" : 0,
					"hidden" : 0,
					"midpoints" : [ 307.100006, 456.0, 161.0, 456.0 ],
					"source" : [ "obj-22", 9 ]
				}

			}
, 			{
				"patchline" : 				{
					"destination" : [ "obj-26", 8 ],
					"disabled" : 0,
					"hidden" : 0,
					"midpoints" : [ 277.366669, 456.0, 147.5, 456.0 ],
					"source" : [ "obj-22", 8 ]
				}

			}
, 			{
				"patchline" : 				{
					"destination" : [ "obj-26", 7 ],
					"disabled" : 0,
					"hidden" : 0,
					"midpoints" : [ 247.633331, 456.0, 134.0, 456.0 ],
					"source" : [ "obj-22", 7 ]
				}

			}
, 			{
				"patchline" : 				{
					"destination" : [ "obj-26", 6 ],
					"disabled" : 0,
					"hidden" : 0,
					"midpoints" : [ 217.899994, 456.0, 120.5, 456.0 ],
					"source" : [ "obj-22", 6 ]
				}

			}
, 			{
				"patchline" : 				{
					"destination" : [ "obj-26", 5 ],
					"disabled" : 0,
					"hidden" : 0,
					"midpoints" : [ 188.166672, 456.0, 107.0, 456.0 ],
					"source" : [ "obj-22", 5 ]
				}

			}
, 			{
				"patchline" : 				{
					"destination" : [ "obj-26", 4 ],
					"disabled" : 0,
					"hidden" : 0,
					"midpoints" : [ 158.433334, 456.0, 93.5, 456.0 ],
					"source" : [ "obj-22", 4 ]
				}

			}
, 			{
				"patchline" : 				{
					"destination" : [ "obj-26", 3 ],
					"disabled" : 0,
					"hidden" : 0,
					"midpoints" : [ 128.699997, 456.0, 80.0, 456.0 ],
					"source" : [ "obj-22", 3 ]
				}

			}
, 			{
				"patchline" : 				{
					"destination" : [ "obj-26", 2 ],
					"disabled" : 0,
					"hidden" : 0,
					"midpoints" : [ 98.966667, 456.0, 66.5, 456.0 ],
					"source" : [ "obj-22", 2 ]
				}

			}
, 			{
				"patchline" : 				{
					"destination" : [ "obj-26", 1 ],
					"disabled" : 0,
					"hidden" : 0,
					"midpoints" : [ 69.23333, 456.0, 53.0, 456.0 ],
					"source" : [ "obj-22", 1 ]
				}

			}
, 			{
				"patchline" : 				{
					"destination" : [ "obj-26", 0 ],
					"disabled" : 0,
					"hidden" : 0,
					"midpoints" : [ 39.5, 456.0, 39.5, 456.0 ],
					"source" : [ "obj-22", 0 ]
				}

			}
, 			{
				"patchline" : 				{
					"destination" : [ "obj-6", 22 ],
					"disabled" : 0,
					"hidden" : 0,
					"midpoints" : [ 39.5, 456.0, 15.0, 456.0, 15.0, 525.0, 532.299988, 525.0 ],
					"source" : [ "obj-22", 0 ]
				}

			}
, 			{
				"patchline" : 				{
					"destination" : [ "obj-20", 0 ],
					"disabled" : 0,
					"hidden" : 0,
					"source" : [ "obj-23", 0 ]
				}

			}
, 			{
				"patchline" : 				{
					"destination" : [ "obj-6", 7 ],
					"disabled" : 0,
					"hidden" : 0,
					"midpoints" : [ 242.0, 525.0, 196.300003, 525.0 ],
					"source" : [ "obj-26", 7 ]
				}

			}
, 			{
				"patchline" : 				{
					"destination" : [ "obj-6", 6 ],
					"disabled" : 0,
					"hidden" : 0,
					"midpoints" : [ 213.071426, 525.0, 173.899994, 525.0 ],
					"source" : [ "obj-26", 6 ]
				}

			}
, 			{
				"patchline" : 				{
					"destination" : [ "obj-6", 5 ],
					"disabled" : 0,
					"hidden" : 0,
					"midpoints" : [ 184.142853, 537.0, 151.5, 537.0 ],
					"source" : [ "obj-26", 5 ]
				}

			}
, 			{
				"patchline" : 				{
					"destination" : [ "obj-6", 4 ],
					"disabled" : 0,
					"hidden" : 0,
					"midpoints" : [ 155.214279, 537.0, 129.100006, 537.0 ],
					"source" : [ "obj-26", 4 ]
				}

			}
, 			{
				"patchline" : 				{
					"destination" : [ "obj-6", 3 ],
					"disabled" : 0,
					"hidden" : 0,
					"midpoints" : [ 126.285713, 537.0, 106.699997, 537.0 ],
					"source" : [ "obj-26", 3 ]
				}

			}
, 			{
				"patchline" : 				{
					"destination" : [ "obj-6", 2 ],
					"disabled" : 0,
					"hidden" : 0,
					"midpoints" : [ 97.35714, 537.0, 84.300003, 537.0 ],
					"source" : [ "obj-26", 2 ]
				}

			}
, 			{
				"patchline" : 				{
					"destination" : [ "obj-6", 1 ],
					"disabled" : 0,
					"hidden" : 0,
					"midpoints" : [ 68.428574, 537.0, 61.900002, 537.0 ],
					"source" : [ "obj-26", 1 ]
				}

			}
, 			{
				"patchline" : 				{
					"destination" : [ "obj-6", 0 ],
					"disabled" : 0,
					"hidden" : 0,
					"midpoints" : [ 39.5, 489.0, 39.5, 489.0 ],
					"source" : [ "obj-26", 0 ]
				}

			}
, 			{
				"patchline" : 				{
					"destination" : [ "obj-26", 0 ],
					"disabled" : 0,
					"hidden" : 0,
					"midpoints" : [ 669.5, 75.0, 15.0, 75.0, 15.0, 465.0, 39.5, 465.0 ],
					"source" : [ "obj-28", 0 ]
				}

			}
, 			{
				"patchline" : 				{
					"destination" : [ "obj-1", 0 ],
					"disabled" : 0,
					"hidden" : 0,
					"midpoints" : [ 39.5, 42.0, 39.5, 42.0 ],
					"source" : [ "obj-3", 0 ]
				}

			}
, 			{
				"patchline" : 				{
					"destination" : [ "obj-84", 0 ],
					"disabled" : 0,
					"hidden" : 0,
					"source" : [ "obj-31", 0 ]
				}

			}
, 			{
				"patchline" : 				{
					"destination" : [ "obj-9", 23 ],
					"disabled" : 0,
					"hidden" : 0,
					"midpoints" : [ 620.5, 342.0, 635.5, 342.0 ],
					"source" : [ "obj-4", 7 ]
				}

			}
, 			{
				"patchline" : 				{
					"destination" : [ "obj-9", 22 ],
					"disabled" : 0,
					"hidden" : 0,
					"midpoints" : [ 595.357117, 342.0, 609.586975, 342.0 ],
					"source" : [ "obj-4", 6 ]
				}

			}
, 			{
				"patchline" : 				{
					"destination" : [ "obj-9", 21 ],
					"disabled" : 0,
					"hidden" : 0,
					"midpoints" : [ 570.214294, 342.0, 583.673889, 342.0 ],
					"source" : [ "obj-4", 5 ]
				}

			}
, 			{
				"patchline" : 				{
					"destination" : [ "obj-9", 20 ],
					"disabled" : 0,
					"hidden" : 0,
					"midpoints" : [ 545.071411, 342.0, 557.760864, 342.0 ],
					"source" : [ "obj-4", 4 ]
				}

			}
, 			{
				"patchline" : 				{
					"destination" : [ "obj-9", 19 ],
					"disabled" : 0,
					"hidden" : 0,
					"midpoints" : [ 519.928589, 342.0, 531.847839, 342.0 ],
					"source" : [ "obj-4", 3 ]
				}

			}
, 			{
				"patchline" : 				{
					"destination" : [ "obj-9", 18 ],
					"disabled" : 0,
					"hidden" : 0,
					"midpoints" : [ 494.785706, 342.0, 505.934784, 342.0 ],
					"source" : [ "obj-4", 2 ]
				}

			}
, 			{
				"patchline" : 				{
					"destination" : [ "obj-9", 17 ],
					"disabled" : 0,
					"hidden" : 0,
					"midpoints" : [ 469.642853, 342.0, 480.021729, 342.0 ],
					"source" : [ "obj-4", 1 ]
				}

			}
, 			{
				"patchline" : 				{
					"destination" : [ "obj-9", 16 ],
					"disabled" : 0,
					"hidden" : 0,
					"midpoints" : [ 444.5, 342.0, 454.108704, 342.0 ],
					"source" : [ "obj-4", 0 ]
				}

			}
, 			{
				"patchline" : 				{
					"destination" : [ "obj-26", 15 ],
					"disabled" : 0,
					"hidden" : 0,
					"source" : [ "obj-7", 15 ]
				}

			}
, 			{
				"patchline" : 				{
					"destination" : [ "obj-26", 14 ],
					"disabled" : 0,
					"hidden" : 0,
					"source" : [ "obj-7", 14 ]
				}

			}
, 			{
				"patchline" : 				{
					"destination" : [ "obj-26", 13 ],
					"disabled" : 0,
					"hidden" : 0,
					"source" : [ "obj-7", 13 ]
				}

			}
, 			{
				"patchline" : 				{
					"destination" : [ "obj-26", 12 ],
					"disabled" : 0,
					"hidden" : 0,
					"source" : [ "obj-7", 12 ]
				}

			}
, 			{
				"patchline" : 				{
					"destination" : [ "obj-26", 11 ],
					"disabled" : 0,
					"hidden" : 0,
					"source" : [ "obj-7", 11 ]
				}

			}
, 			{
				"patchline" : 				{
					"destination" : [ "obj-26", 10 ],
					"disabled" : 0,
					"hidden" : 0,
					"source" : [ "obj-7", 10 ]
				}

			}
, 			{
				"patchline" : 				{
					"destination" : [ "obj-26", 9 ],
					"disabled" : 0,
					"hidden" : 0,
					"source" : [ "obj-7", 9 ]
				}

			}
, 			{
				"patchline" : 				{
					"destination" : [ "obj-26", 8 ],
					"disabled" : 0,
					"hidden" : 0,
					"source" : [ "obj-7", 8 ]
				}

			}
, 			{
				"patchline" : 				{
					"destination" : [ "obj-26", 7 ],
					"disabled" : 0,
					"hidden" : 0,
					"source" : [ "obj-7", 7 ]
				}

			}
, 			{
				"patchline" : 				{
					"destination" : [ "obj-26", 6 ],
					"disabled" : 0,
					"hidden" : 0,
					"source" : [ "obj-7", 6 ]
				}

			}
, 			{
				"patchline" : 				{
					"destination" : [ "obj-26", 5 ],
					"disabled" : 0,
					"hidden" : 0,
					"source" : [ "obj-7", 5 ]
				}

			}
, 			{
				"patchline" : 				{
					"destination" : [ "obj-26", 4 ],
					"disabled" : 0,
					"hidden" : 0,
					"source" : [ "obj-7", 4 ]
				}

			}
, 			{
				"patchline" : 				{
					"destination" : [ "obj-26", 3 ],
					"disabled" : 0,
					"hidden" : 0,
					"source" : [ "obj-7", 3 ]
				}

			}
, 			{
				"patchline" : 				{
					"destination" : [ "obj-26", 2 ],
					"disabled" : 0,
					"hidden" : 0,
					"source" : [ "obj-7", 2 ]
				}

			}
, 			{
				"patchline" : 				{
					"destination" : [ "obj-26", 1 ],
					"disabled" : 0,
					"hidden" : 0,
					"source" : [ "obj-7", 1 ]
				}

			}
, 			{
				"patchline" : 				{
					"destination" : [ "obj-26", 0 ],
					"disabled" : 0,
					"hidden" : 0,
					"source" : [ "obj-7", 0 ]
				}

			}
, 			{
				"patchline" : 				{
					"destination" : [ "obj-22", 0 ],
					"disabled" : 0,
					"hidden" : 0,
					"source" : [ "obj-8", 0 ]
				}

			}
, 			{
				"patchline" : 				{
					"destination" : [ "obj-26", 0 ],
					"disabled" : 0,
					"hidden" : 0,
					"source" : [ "obj-8", 0 ]
				}

			}
, 			{
				"patchline" : 				{
					"destination" : [ "obj-22", 7 ],
					"disabled" : 0,
					"hidden" : 0,
					"midpoints" : [ 248.100006, 420.0, 485.5, 420.0 ],
					"source" : [ "obj-9", 7 ]
				}

			}
, 			{
				"patchline" : 				{
					"destination" : [ "obj-22", 6 ],
					"disabled" : 0,
					"hidden" : 0,
					"midpoints" : [ 218.300003, 420.0, 421.785706, 420.0 ],
					"source" : [ "obj-9", 6 ]
				}

			}
, 			{
				"patchline" : 				{
					"destination" : [ "obj-22", 5 ],
					"disabled" : 0,
					"hidden" : 0,
					"midpoints" : [ 188.5, 420.0, 358.071442, 420.0 ],
					"source" : [ "obj-9", 5 ]
				}

			}
, 			{
				"patchline" : 				{
					"destination" : [ "obj-22", 4 ],
					"disabled" : 0,
					"hidden" : 0,
					"midpoints" : [ 158.699997, 420.0, 294.357147, 420.0 ],
					"source" : [ "obj-9", 4 ]
				}

			}
, 			{
				"patchline" : 				{
					"destination" : [ "obj-22", 3 ],
					"disabled" : 0,
					"hidden" : 0,
					"midpoints" : [ 128.899994, 420.0, 230.642853, 420.0 ],
					"source" : [ "obj-9", 3 ]
				}

			}
, 			{
				"patchline" : 				{
					"destination" : [ "obj-22", 2 ],
					"disabled" : 0,
					"hidden" : 0,
					"midpoints" : [ 99.099998, 420.0, 166.928574, 420.0 ],
					"source" : [ "obj-9", 2 ]
				}

			}
, 			{
				"patchline" : 				{
					"destination" : [ "obj-22", 1 ],
					"disabled" : 0,
					"hidden" : 0,
					"midpoints" : [ 69.300003, 420.0, 103.214287, 420.0 ],
					"source" : [ "obj-9", 1 ]
				}

			}
, 			{
				"patchline" : 				{
					"destination" : [ "obj-22", 0 ],
					"disabled" : 0,
					"hidden" : 0,
					"midpoints" : [ 39.5, 375.0, 39.5, 375.0 ],
					"source" : [ "obj-9", 0 ]
				}

			}
, 			{
				"patchline" : 				{
					"destination" : [ "obj-26", 3 ],
					"disabled" : 0,
					"hidden" : 0,
					"source" : [ "obj-9", 19 ]
				}

			}
, 			{
				"patchline" : 				{
					"destination" : [ "obj-26", 2 ],
					"disabled" : 0,
					"hidden" : 0,
					"source" : [ "obj-9", 18 ]
				}

			}
, 			{
				"patchline" : 				{
					"destination" : [ "obj-26", 1 ],
					"disabled" : 0,
					"hidden" : 0,
					"source" : [ "obj-9", 17 ]
				}

			}
, 			{
				"patchline" : 				{
					"destination" : [ "obj-26", 0 ],
					"disabled" : 0,
					"hidden" : 0,
					"source" : [ "obj-9", 16 ]
				}

			}
, 			{
				"patchline" : 				{
					"destination" : [ "obj-6", 30 ],
					"disabled" : 0,
					"hidden" : 0,
					"midpoints" : [ 486.5, 525.0, 711.5, 525.0 ],
					"source" : [ "obj-9", 15 ]
				}

			}
, 			{
				"patchline" : 				{
					"destination" : [ "obj-6", 29 ],
					"disabled" : 0,
					"hidden" : 0,
					"midpoints" : [ 456.700012, 525.0, 689.099976, 525.0 ],
					"source" : [ "obj-9", 14 ]
				}

			}
, 			{
				"patchline" : 				{
					"destination" : [ "obj-6", 28 ],
					"disabled" : 0,
					"hidden" : 0,
					"midpoints" : [ 426.899994, 420.0, 666.700012, 420.0 ],
					"source" : [ "obj-9", 13 ]
				}

			}
, 			{
				"patchline" : 				{
					"destination" : [ "obj-6", 27 ],
					"disabled" : 0,
					"hidden" : 0,
					"midpoints" : [ 397.100006, 420.0, 644.299988, 420.0 ],
					"source" : [ "obj-9", 12 ]
				}

			}
, 			{
				"patchline" : 				{
					"destination" : [ "obj-6", 26 ],
					"disabled" : 0,
					"hidden" : 0,
					"midpoints" : [ 367.299988, 420.0, 621.900024, 420.0 ],
					"source" : [ "obj-9", 11 ]
				}

			}
, 			{
				"patchline" : 				{
					"destination" : [ "obj-6", 25 ],
					"disabled" : 0,
					"hidden" : 0,
					"midpoints" : [ 337.5, 420.0, 599.5, 420.0 ],
					"source" : [ "obj-9", 10 ]
				}

			}
, 			{
				"patchline" : 				{
					"destination" : [ "obj-6", 24 ],
					"disabled" : 0,
					"hidden" : 0,
					"midpoints" : [ 307.700012, 420.0, 577.099976, 420.0 ],
					"source" : [ "obj-9", 9 ]
				}

			}
, 			{
				"patchline" : 				{
					"destination" : [ "obj-6", 23 ],
					"disabled" : 0,
					"hidden" : 0,
					"midpoints" : [ 277.899994, 420.0, 554.700012, 420.0 ],
					"source" : [ "obj-9", 8 ]
				}

			}
 ],
		"parameters" : 		{
			"obj-6::obj-35" : [ "TOP", "TOP", 0 ],
			"obj-6::obj-23" : [ "SUB", "SUB", 0 ],
			"obj-6::obj-25" : [ "BOSE", "BOSE", 0 ],
			"obj-4::obj-2" : [ "~", "~", 0 ],
			"obj-21::obj-3" : [ "live.gain~", "live.gain~", 0 ],
			"obj-7::obj-2" : [ "~[2]", "~", 0 ],
			"obj-1::obj-2" : [ "AES IN", "AES IN", 0 ]
		}
,
		"dependency_cache" : [ 			{
				"name" : "sp_inputs.maxpat",
				"bootpath" : "/Users/giuseppe/Git_REPO/_UNIROMA2/AEM-surround/maxpatches",
				"patcherrelativepath" : ".",
				"type" : "JSON",
				"implicit" : 1
			}
, 			{
				"name" : "sp_recorder.maxpat",
				"bootpath" : "/Users/giuseppe/Git_REPO/_UNIROMA2/AEM-surround/maxpatches",
				"patcherrelativepath" : ".",
				"type" : "JSON",
				"implicit" : 1
			}
, 			{
				"name" : "AEM_bose.maxpat",
				"bootpath" : "/Users/giuseppe/Git_REPO/_UNIROMA2/AEM-surround/maxpatches",
				"patcherrelativepath" : ".",
				"type" : "JSON",
				"implicit" : 1
			}
, 			{
				"name" : "sp_player.maxpat",
				"bootpath" : "/Users/giuseppe/Git_REPO/_UNIROMA2/AEM-surround/maxpatches",
				"patcherrelativepath" : ".",
				"type" : "JSON",
				"implicit" : 1
			}
, 			{
				"name" : "M4L.matrixctrl.transp.png",
				"bootpath" : "/Applications/Max 6.1/patches/picts/m4l-picts",
				"patcherrelativepath" : "../../../../../../Applications/Max 6.1/patches/picts/m4l-picts",
				"type" : "PNG ",
				"implicit" : 1
			}
, 			{
				"name" : "AEM_outputs.maxpat",
				"bootpath" : "/Users/giuseppe/Git_REPO/_UNIROMA2/AEM-surround/maxpatches",
				"patcherrelativepath" : ".",
				"type" : "JSON",
				"implicit" : 1
			}
, 			{
				"name" : "sp_BFMT3_player.maxpat",
				"bootpath" : "/Users/giuseppe/Git_REPO/_UNIROMA2/AEM-surround/maxpatches",
				"patcherrelativepath" : ".",
				"type" : "JSON",
				"implicit" : 1
			}
, 			{
				"name" : "testsignal.maxpat",
				"bootpath" : "/Users/giuseppe/Git_REPO/_UNIROMA2/AEM-surround/maxpatches",
				"patcherrelativepath" : ".",
				"type" : "JSON",
				"implicit" : 1
			}
, 			{
				"name" : "AEM_top.maxpat",
				"bootpath" : "/Users/giuseppe/Git_REPO/_UNIROMA2/AEM-surround/maxpatches",
				"patcherrelativepath" : ".",
				"type" : "JSON",
				"implicit" : 1
			}
, 			{
				"name" : "ambidecode~.mxo",
				"type" : "iLaX"
			}
, 			{
				"name" : "ambiencode~.mxo",
				"type" : "iLaX"
			}
, 			{
				"name" : "ambimonitor.mxo",
				"type" : "iLaX"
			}
 ]
	}

}
