{
	"patcher" : 	{
		"fileversion" : 1,
		"appversion" : 		{
			"major" : 6,
			"minor" : 1,
			"revision" : 4,
			"architecture" : "x86"
		}
,
		"openrect" : [ 6.0, 529.0, 346.0, 407.0 ],
		"bgcolor" : [ 0.25, 0.25, 0.25, 1.0 ],
		"bglocked" : 0,
		"openinpresentation" : 1,
		"default_fontsize" : 12.0,
		"default_fontface" : 0,
		"default_fontname" : "Menlo Regular",
		"gridonopen" : 0,
		"gridsize" : [ 15.0, 5.0 ],
		"gridsnaponopen" : 0,
		"statusbarvisible" : 2,
		"toolbarvisible" : 1,
		"boxanimatetime" : 200,
		"imprint" : 0,
		"enablehscroll" : 1,
		"enablevscroll" : 1,
		"devicewidth" : 0.0,
		"description" : "",
		"digest" : "",
		"tags" : "",
		"boxes" : [ 			{
				"box" : 				{
					"comment" : "out 32",
					"id" : "obj-31",
					"maxclass" : "inlet",
					"numinlets" : 0,
					"numoutlets" : 1,
					"outlettype" : [ "" ],
					"patching_rect" : [ 1215.0, 10.0, 25.0, 25.0 ],
					"presentation_rect" : [ 1216.0, 9.0, 0.0, 0.0 ]
				}

			}
, 			{
				"box" : 				{
					"comment" : "out 31",
					"id" : "obj-32",
					"maxclass" : "inlet",
					"numinlets" : 0,
					"numoutlets" : 1,
					"outlettype" : [ "" ],
					"patching_rect" : [ 1185.0, 10.0, 25.0, 25.0 ],
					"presentation_rect" : [ 1186.0, 9.0, 0.0, 0.0 ]
				}

			}
, 			{
				"box" : 				{
					"comment" : "out 30",
					"id" : "obj-33",
					"ignoreclick" : 1,
					"maxclass" : "inlet",
					"numinlets" : 0,
					"numoutlets" : 1,
					"outlettype" : [ "" ],
					"patching_rect" : [ 1155.0, 10.0, 25.0, 25.0 ],
					"presentation_rect" : [ 1156.0, 9.0, 0.0, 0.0 ]
				}

			}
, 			{
				"box" : 				{
					"comment" : "out 29",
					"id" : "obj-34",
					"ignoreclick" : 1,
					"maxclass" : "inlet",
					"numinlets" : 0,
					"numoutlets" : 1,
					"outlettype" : [ "" ],
					"patching_rect" : [ 1125.0, 10.0, 25.0, 25.0 ],
					"presentation_rect" : [ 1126.0, 9.0, 0.0, 0.0 ]
				}

			}
, 			{
				"box" : 				{
					"comment" : "out 28",
					"id" : "obj-19",
					"maxclass" : "inlet",
					"numinlets" : 0,
					"numoutlets" : 1,
					"outlettype" : [ "" ],
					"patching_rect" : [ 1095.0, 10.0, 25.0, 25.0 ],
					"presentation_rect" : [ 1096.0, 9.0, 0.0, 0.0 ]
				}

			}
, 			{
				"box" : 				{
					"comment" : "out 27",
					"id" : "obj-30",
					"maxclass" : "inlet",
					"numinlets" : 0,
					"numoutlets" : 1,
					"outlettype" : [ "" ],
					"patching_rect" : [ 1065.0, 10.0, 25.0, 25.0 ],
					"presentation_rect" : [ 1066.0, 9.0, 0.0, 0.0 ]
				}

			}
, 			{
				"box" : 				{
					"comment" : "out 26",
					"id" : "obj-18",
					"maxclass" : "inlet",
					"numinlets" : 0,
					"numoutlets" : 1,
					"outlettype" : [ "" ],
					"patching_rect" : [ 1035.0, 10.0, 25.0, 25.0 ],
					"presentation_rect" : [ 1037.0, 9.0, 0.0, 0.0 ]
				}

			}
, 			{
				"box" : 				{
					"comment" : "out 25",
					"id" : "obj-17",
					"maxclass" : "inlet",
					"numinlets" : 0,
					"numoutlets" : 1,
					"outlettype" : [ "" ],
					"patching_rect" : [ 1005.0, 10.0, 25.0, 25.0 ]
				}

			}
, 			{
				"box" : 				{
					"comment" : "subwoofer",
					"id" : "obj-29",
					"maxclass" : "inlet",
					"numinlets" : 0,
					"numoutlets" : 1,
					"outlettype" : [ "" ],
					"patching_rect" : [ 935.0, 10.0, 25.0, 25.0 ]
				}

			}
, 			{
				"box" : 				{
					"comment" : "out 22",
					"id" : "obj-20",
					"maxclass" : "inlet",
					"numinlets" : 0,
					"numoutlets" : 1,
					"outlettype" : [ "" ],
					"patching_rect" : [ 885.0, 10.0, 25.0, 25.0 ]
				}

			}
, 			{
				"box" : 				{
					"comment" : "out 21",
					"id" : "obj-21",
					"maxclass" : "inlet",
					"numinlets" : 0,
					"numoutlets" : 1,
					"outlettype" : [ "" ],
					"patching_rect" : [ 855.0, 10.0, 25.0, 25.0 ]
				}

			}
, 			{
				"box" : 				{
					"comment" : "out 20",
					"id" : "obj-22",
					"maxclass" : "inlet",
					"numinlets" : 0,
					"numoutlets" : 1,
					"outlettype" : [ "" ],
					"patching_rect" : [ 825.0, 10.0, 25.0, 25.0 ]
				}

			}
, 			{
				"box" : 				{
					"comment" : "out 19",
					"id" : "obj-26",
					"maxclass" : "inlet",
					"numinlets" : 0,
					"numoutlets" : 1,
					"outlettype" : [ "" ],
					"patching_rect" : [ 795.0, 10.0, 25.0, 25.0 ]
				}

			}
, 			{
				"box" : 				{
					"comment" : "out 18",
					"id" : "obj-27",
					"maxclass" : "inlet",
					"numinlets" : 0,
					"numoutlets" : 1,
					"outlettype" : [ "" ],
					"patching_rect" : [ 765.0, 10.0, 25.0, 25.0 ]
				}

			}
, 			{
				"box" : 				{
					"comment" : "out 17",
					"id" : "obj-28",
					"maxclass" : "inlet",
					"numinlets" : 0,
					"numoutlets" : 1,
					"outlettype" : [ "" ],
					"patching_rect" : [ 735.0, 10.0, 25.0, 25.0 ]
				}

			}
, 			{
				"box" : 				{
					"comment" : "out 16",
					"id" : "obj-9",
					"maxclass" : "inlet",
					"numinlets" : 0,
					"numoutlets" : 1,
					"outlettype" : [ "" ],
					"patching_rect" : [ 705.0, 10.0, 25.0, 25.0 ]
				}

			}
, 			{
				"box" : 				{
					"comment" : "out 15",
					"id" : "obj-10",
					"maxclass" : "inlet",
					"numinlets" : 0,
					"numoutlets" : 1,
					"outlettype" : [ "" ],
					"patching_rect" : [ 675.0, 10.0, 25.0, 25.0 ]
				}

			}
, 			{
				"box" : 				{
					"comment" : "out 14",
					"id" : "obj-11",
					"maxclass" : "inlet",
					"numinlets" : 0,
					"numoutlets" : 1,
					"outlettype" : [ "" ],
					"patching_rect" : [ 645.0, 10.0, 25.0, 25.0 ]
				}

			}
, 			{
				"box" : 				{
					"comment" : "out 13",
					"id" : "obj-12",
					"maxclass" : "inlet",
					"numinlets" : 0,
					"numoutlets" : 1,
					"outlettype" : [ "" ],
					"patching_rect" : [ 615.0, 10.0, 25.0, 25.0 ]
				}

			}
, 			{
				"box" : 				{
					"comment" : "out 12",
					"id" : "obj-13",
					"maxclass" : "inlet",
					"numinlets" : 0,
					"numoutlets" : 1,
					"outlettype" : [ "" ],
					"patching_rect" : [ 585.0, 10.0, 25.0, 25.0 ]
				}

			}
, 			{
				"box" : 				{
					"comment" : "out 11",
					"id" : "obj-14",
					"maxclass" : "inlet",
					"numinlets" : 0,
					"numoutlets" : 1,
					"outlettype" : [ "" ],
					"patching_rect" : [ 555.0, 10.0, 25.0, 25.0 ]
				}

			}
, 			{
				"box" : 				{
					"comment" : "out 10",
					"id" : "obj-15",
					"maxclass" : "inlet",
					"numinlets" : 0,
					"numoutlets" : 1,
					"outlettype" : [ "" ],
					"patching_rect" : [ 525.0, 10.0, 25.0, 25.0 ]
				}

			}
, 			{
				"box" : 				{
					"comment" : "out 9",
					"id" : "obj-16",
					"maxclass" : "inlet",
					"numinlets" : 0,
					"numoutlets" : 1,
					"outlettype" : [ "" ],
					"patching_rect" : [ 495.0, 10.0, 25.0, 25.0 ]
				}

			}
, 			{
				"box" : 				{
					"comment" : "out 7",
					"id" : "obj-5",
					"maxclass" : "inlet",
					"numinlets" : 0,
					"numoutlets" : 1,
					"outlettype" : [ "" ],
					"patching_rect" : [ 465.0, 10.0, 25.0, 25.0 ]
				}

			}
, 			{
				"box" : 				{
					"comment" : "out 7",
					"id" : "obj-6",
					"maxclass" : "inlet",
					"numinlets" : 0,
					"numoutlets" : 1,
					"outlettype" : [ "" ],
					"patching_rect" : [ 435.0, 10.0, 25.0, 25.0 ]
				}

			}
, 			{
				"box" : 				{
					"comment" : "out 6",
					"id" : "obj-7",
					"maxclass" : "inlet",
					"numinlets" : 0,
					"numoutlets" : 1,
					"outlettype" : [ "" ],
					"patching_rect" : [ 405.0, 10.0, 25.0, 25.0 ]
				}

			}
, 			{
				"box" : 				{
					"comment" : "out 5",
					"id" : "obj-8",
					"maxclass" : "inlet",
					"numinlets" : 0,
					"numoutlets" : 1,
					"outlettype" : [ "" ],
					"patching_rect" : [ 375.0, 10.0, 25.0, 25.0 ]
				}

			}
, 			{
				"box" : 				{
					"comment" : "out 4",
					"id" : "obj-4",
					"maxclass" : "inlet",
					"numinlets" : 0,
					"numoutlets" : 1,
					"outlettype" : [ "" ],
					"patching_rect" : [ 345.0, 10.0, 25.0, 25.0 ]
				}

			}
, 			{
				"box" : 				{
					"comment" : "out 3",
					"id" : "obj-3",
					"maxclass" : "inlet",
					"numinlets" : 0,
					"numoutlets" : 1,
					"outlettype" : [ "" ],
					"patching_rect" : [ 315.0, 10.0, 25.0, 25.0 ]
				}

			}
, 			{
				"box" : 				{
					"comment" : "out 2",
					"id" : "obj-2",
					"maxclass" : "inlet",
					"numinlets" : 0,
					"numoutlets" : 1,
					"outlettype" : [ "" ],
					"patching_rect" : [ 285.0, 10.0, 25.0, 25.0 ]
				}

			}
, 			{
				"box" : 				{
					"comment" : "out 1",
					"id" : "obj-1",
					"maxclass" : "inlet",
					"numinlets" : 0,
					"numoutlets" : 1,
					"outlettype" : [ "" ],
					"patching_rect" : [ 255.0, 10.0, 25.0, 25.0 ]
				}

			}
, 			{
				"box" : 				{
					"fontname" : "Menlo Regular",
					"fontsize" : 12.0,
					"id" : "obj-46",
					"maxclass" : "newobj",
					"numinlets" : 2,
					"numoutlets" : 2,
					"outlettype" : [ "bang", "" ],
					"patching_rect" : [ 15.0, 200.0, 62.388893, 20.0 ],
					"text" : "sel 1"
				}

			}
, 			{
				"box" : 				{
					"fontname" : "Menlo Regular",
					"fontsize" : 12.0,
					"id" : "obj-44",
					"maxclass" : "message",
					"numinlets" : 2,
					"numoutlets" : 1,
					"outlettype" : [ "" ],
					"patching_rect" : [ 58.388893, 230.0, 54.0, 18.0 ],
					"text" : "wclose"
				}

			}
, 			{
				"box" : 				{
					"fontname" : "Menlo Regular",
					"fontsize" : 12.0,
					"id" : "obj-43",
					"maxclass" : "message",
					"numinlets" : 2,
					"numoutlets" : 1,
					"outlettype" : [ "" ],
					"patching_rect" : [ 15.0, 230.0, 39.0, 18.0 ],
					"text" : "open"
				}

			}
, 			{
				"box" : 				{
					"bgcolor" : [ 1.0, 1.0, 1.0, 1.0 ],
					"bgoncolor" : [ 0.003851, 0.0, 0.0, 1.0 ],
					"bgovercolor" : [ 0.003851, 0.0, 0.0, 1.0 ],
					"bgoveroncolor" : [ 0.003851, 0.0, 0.0, 1.0 ],
					"bordercolor" : [ 0.003851, 0.0, 0.0, 1.0 ],
					"borderoncolor" : [ 0.003851, 0.0, 0.0, 1.0 ],
					"fontname" : "Menlo Regular",
					"fontsize" : 18.0,
					"id" : "obj-48",
					"ignoreclick" : 1,
					"maxclass" : "textbutton",
					"numinlets" : 1,
					"numoutlets" : 3,
					"outlettype" : [ "", "", "int" ],
					"parameter_enable" : 0,
					"patching_rect" : [ 15.0, 10.0, 100.0, 20.0 ],
					"presentation" : 1,
					"presentation_rect" : [ 37.5, 10.0, 135.0, 30.0 ],
					"text" : "OUTPUTS",
					"textcolor" : [ 0.003851, 0.0, 0.0, 1.0 ],
					"texton" : "INPUTS",
					"textovercolor" : [ 0.003851, 0.0, 0.0, 1.0 ],
					"textoveroncolor" : [ 0.866667, 0.866667, 0.866667, 1.0 ]
				}

			}
, 			{
				"box" : 				{
					"bgcolor" : [ 0.003851, 0.0, 0.0, 1.0 ],
					"bgoncolor" : [ 0.003851, 0.0, 0.0, 1.0 ],
					"bgovercolor" : [ 0.003851, 0.0, 0.0, 1.0 ],
					"bgoveroncolor" : [ 0.003851, 0.0, 0.0, 1.0 ],
					"border" : 3,
					"bordercolor" : [ 1.0, 1.0, 1.0, 1.0 ],
					"borderoncolor" : [ 1.0, 1.0, 1.0, 1.0 ],
					"fontname" : "Menlo Regular",
					"fontsize" : 12.0,
					"id" : "obj-41",
					"maxclass" : "textbutton",
					"mode" : 1,
					"numinlets" : 1,
					"numoutlets" : 3,
					"outlettype" : [ "", "", "int" ],
					"parameter_enable" : 0,
					"patching_rect" : [ 120.0, 10.0, 100.0, 20.0 ],
					"presentation" : 1,
					"presentation_rect" : [ 37.5, 45.0, 135.0, 30.0 ],
					"text" : "Open DSP",
					"textcolor" : [ 1.0, 1.0, 1.0, 1.0 ],
					"texton" : "Close DSP",
					"textovercolor" : [ 0.866667, 0.866667, 0.866667, 1.0 ],
					"textoveroncolor" : [ 0.866667, 0.866667, 0.866667, 1.0 ]
				}

			}
, 			{
				"box" : 				{
					"channels" : 1,
					"focusbordercolor" : [ 1.0, 1.0, 1.0, 1.0 ],
					"fontname" : "Menlo Regular",
					"fontsize" : 14.0,
					"id" : "obj-23",
					"livemode" : 1,
					"maxclass" : "live.gain~",
					"mode" : 1,
					"numinlets" : 1,
					"numoutlets" : 4,
					"outlettype" : [ "signal", "", "float", "list" ],
					"parameter_enable" : 1,
					"patching_rect" : [ 870.0, 290.0, 90.0, 170.0 ],
					"presentation" : 1,
					"presentation_rect" : [ 240.0, 85.0, 75.0, 300.0 ],
					"saved_attribute_attributes" : 					{
						"valueof" : 						{
							"parameter_longname" : "SUB",
							"parameter_shortname" : "SUB",
							"parameter_type" : 0,
							"parameter_mmin" : -70.0,
							"parameter_mmax" : 6.0,
							"parameter_initial" : [ 0.0 ],
							"parameter_unitstyle" : 4
						}

					}
,
					"slidercolor" : [ 0.25, 0.25, 0.25, 1.0 ],
					"textcolor" : [ 1.0, 1.0, 1.0, 1.0 ],
					"tribordercolor" : [ 1.0, 1.0, 1.0, 1.0 ],
					"tricolor" : [ 1.0, 1.0, 1.0, 1.0 ],
					"trioncolor" : [ 1.0, 0.945033, 0.043306, 1.0 ],
					"varname" : "SUB"
				}

			}
, 			{
				"box" : 				{
					"fontname" : "Menlo Regular",
					"fontsize" : 11.0,
					"id" : "obj-24",
					"maxclass" : "newobj",
					"numinlets" : 32,
					"numoutlets" : 0,
					"patching_rect" : [ 15.0, 550.0, 960.0, 19.0 ],
					"text" : "dac~ 1 2 3 4 5 6 7 8 9 10 11 12 13 14 15 16 17 18 19 20 21 22 23 24 25 26 27 28 29 30 31 32"
				}

			}
, 			{
				"box" : 				{
					"channels" : 22,
					"focusbordercolor" : [ 1.0, 1.0, 1.0, 1.0 ],
					"fontname" : "Menlo Regular",
					"fontsize" : 14.0,
					"id" : "obj-25",
					"livemode" : 1,
					"maxclass" : "live.gain~",
					"mode" : 1,
					"numinlets" : 22,
					"numoutlets" : 25,
					"outlettype" : [ "signal", "signal", "signal", "signal", "signal", "signal", "signal", "signal", "signal", "signal", "signal", "signal", "signal", "signal", "signal", "signal", "signal", "signal", "signal", "signal", "signal", "signal", "", "float", "list" ],
					"parameter_enable" : 1,
					"patching_rect" : [ 30.0, 290.0, 765.0, 170.0 ],
					"presentation" : 1,
					"presentation_rect" : [ 15.0, 85.0, 210.0, 300.0 ],
					"saved_attribute_attributes" : 					{
						"valueof" : 						{
							"parameter_longname" : "OUTS",
							"parameter_shortname" : "OUTS",
							"parameter_type" : 0,
							"parameter_mmin" : -70.0,
							"parameter_mmax" : 6.0,
							"parameter_initial" : [ 0.0 ],
							"parameter_unitstyle" : 4
						}

					}
,
					"slidercolor" : [ 0.25, 0.25, 0.25, 1.0 ],
					"textcolor" : [ 1.0, 1.0, 1.0, 1.0 ],
					"tribordercolor" : [ 1.0, 1.0, 1.0, 1.0 ],
					"tricolor" : [ 1.0, 1.0, 1.0, 1.0 ],
					"trioncolor" : [ 1.0, 0.945033, 0.043306, 1.0 ],
					"varname" : "OUTS"
				}

			}
, 			{
				"box" : 				{
					"bgcolor" : [ 0.003851, 0.0, 0.0, 1.0 ],
					"border" : 2,
					"bordercolor" : [ 1.0, 1.0, 1.0, 1.0 ],
					"id" : "obj-47",
					"maxclass" : "panel",
					"numinlets" : 1,
					"numoutlets" : 0,
					"patching_rect" : [ 15.0, 35.0, 31.333344, 30.0 ],
					"presentation" : 1,
					"presentation_rect" : [ 15.0, 25.0, 315.0, 370.0 ],
					"rounded" : 12
				}

			}
 ],
		"lines" : [ 			{
				"patchline" : 				{
					"destination" : [ "obj-25", 0 ],
					"disabled" : 0,
					"hidden" : 0,
					"source" : [ "obj-1", 0 ]
				}

			}
, 			{
				"patchline" : 				{
					"destination" : [ "obj-25", 14 ],
					"disabled" : 0,
					"hidden" : 0,
					"source" : [ "obj-10", 0 ]
				}

			}
, 			{
				"patchline" : 				{
					"destination" : [ "obj-25", 13 ],
					"disabled" : 0,
					"hidden" : 0,
					"source" : [ "obj-11", 0 ]
				}

			}
, 			{
				"patchline" : 				{
					"destination" : [ "obj-25", 12 ],
					"disabled" : 0,
					"hidden" : 0,
					"source" : [ "obj-12", 0 ]
				}

			}
, 			{
				"patchline" : 				{
					"destination" : [ "obj-25", 11 ],
					"disabled" : 0,
					"hidden" : 0,
					"source" : [ "obj-13", 0 ]
				}

			}
, 			{
				"patchline" : 				{
					"destination" : [ "obj-25", 10 ],
					"disabled" : 0,
					"hidden" : 0,
					"source" : [ "obj-14", 0 ]
				}

			}
, 			{
				"patchline" : 				{
					"destination" : [ "obj-25", 9 ],
					"disabled" : 0,
					"hidden" : 0,
					"source" : [ "obj-15", 0 ]
				}

			}
, 			{
				"patchline" : 				{
					"destination" : [ "obj-25", 8 ],
					"disabled" : 0,
					"hidden" : 0,
					"source" : [ "obj-16", 0 ]
				}

			}
, 			{
				"patchline" : 				{
					"destination" : [ "obj-24", 24 ],
					"disabled" : 0,
					"hidden" : 0,
					"source" : [ "obj-17", 0 ]
				}

			}
, 			{
				"patchline" : 				{
					"destination" : [ "obj-24", 25 ],
					"disabled" : 0,
					"hidden" : 0,
					"source" : [ "obj-18", 0 ]
				}

			}
, 			{
				"patchline" : 				{
					"destination" : [ "obj-24", 27 ],
					"disabled" : 0,
					"hidden" : 0,
					"source" : [ "obj-19", 0 ]
				}

			}
, 			{
				"patchline" : 				{
					"destination" : [ "obj-25", 1 ],
					"disabled" : 0,
					"hidden" : 0,
					"source" : [ "obj-2", 0 ]
				}

			}
, 			{
				"patchline" : 				{
					"destination" : [ "obj-25", 21 ],
					"disabled" : 0,
					"hidden" : 0,
					"source" : [ "obj-20", 0 ]
				}

			}
, 			{
				"patchline" : 				{
					"destination" : [ "obj-25", 20 ],
					"disabled" : 0,
					"hidden" : 0,
					"source" : [ "obj-21", 0 ]
				}

			}
, 			{
				"patchline" : 				{
					"destination" : [ "obj-25", 19 ],
					"disabled" : 0,
					"hidden" : 0,
					"source" : [ "obj-22", 0 ]
				}

			}
, 			{
				"patchline" : 				{
					"destination" : [ "obj-24", 22 ],
					"disabled" : 0,
					"hidden" : 0,
					"midpoints" : [ 879.5, 504.5, 692.306458, 504.5 ],
					"source" : [ "obj-23", 0 ]
				}

			}
, 			{
				"patchline" : 				{
					"destination" : [ "obj-24", 21 ],
					"disabled" : 0,
					"hidden" : 0,
					"midpoints" : [ 692.25, 504.5, 661.951599, 504.5 ],
					"source" : [ "obj-25", 21 ]
				}

			}
, 			{
				"patchline" : 				{
					"destination" : [ "obj-24", 20 ],
					"disabled" : 0,
					"hidden" : 0,
					"midpoints" : [ 661.166687, 504.5, 631.596802, 504.5 ],
					"source" : [ "obj-25", 20 ]
				}

			}
, 			{
				"patchline" : 				{
					"destination" : [ "obj-24", 19 ],
					"disabled" : 0,
					"hidden" : 0,
					"midpoints" : [ 630.083313, 504.5, 601.241943, 504.5 ],
					"source" : [ "obj-25", 19 ]
				}

			}
, 			{
				"patchline" : 				{
					"destination" : [ "obj-24", 18 ],
					"disabled" : 0,
					"hidden" : 0,
					"midpoints" : [ 599.0, 504.5, 570.887085, 504.5 ],
					"source" : [ "obj-25", 18 ]
				}

			}
, 			{
				"patchline" : 				{
					"destination" : [ "obj-24", 17 ],
					"disabled" : 0,
					"hidden" : 0,
					"midpoints" : [ 567.916687, 504.5, 540.532288, 504.5 ],
					"source" : [ "obj-25", 17 ]
				}

			}
, 			{
				"patchline" : 				{
					"destination" : [ "obj-24", 16 ],
					"disabled" : 0,
					"hidden" : 0,
					"midpoints" : [ 536.833313, 504.5, 510.177429, 504.5 ],
					"source" : [ "obj-25", 16 ]
				}

			}
, 			{
				"patchline" : 				{
					"destination" : [ "obj-24", 15 ],
					"disabled" : 0,
					"hidden" : 0,
					"midpoints" : [ 505.75, 504.5, 479.822571, 504.5 ],
					"source" : [ "obj-25", 15 ]
				}

			}
, 			{
				"patchline" : 				{
					"destination" : [ "obj-24", 14 ],
					"disabled" : 0,
					"hidden" : 0,
					"midpoints" : [ 474.666656, 504.5, 449.467743, 504.5 ],
					"source" : [ "obj-25", 14 ]
				}

			}
, 			{
				"patchline" : 				{
					"destination" : [ "obj-24", 13 ],
					"disabled" : 0,
					"hidden" : 0,
					"midpoints" : [ 443.583344, 504.5, 419.112915, 504.5 ],
					"source" : [ "obj-25", 13 ]
				}

			}
, 			{
				"patchline" : 				{
					"destination" : [ "obj-24", 12 ],
					"disabled" : 0,
					"hidden" : 0,
					"midpoints" : [ 412.5, 504.5, 388.758057, 504.5 ],
					"source" : [ "obj-25", 12 ]
				}

			}
, 			{
				"patchline" : 				{
					"destination" : [ "obj-24", 11 ],
					"disabled" : 0,
					"hidden" : 0,
					"midpoints" : [ 381.416656, 504.5, 358.403229, 504.5 ],
					"source" : [ "obj-25", 11 ]
				}

			}
, 			{
				"patchline" : 				{
					"destination" : [ "obj-24", 10 ],
					"disabled" : 0,
					"hidden" : 0,
					"midpoints" : [ 350.333344, 504.5, 328.048401, 504.5 ],
					"source" : [ "obj-25", 10 ]
				}

			}
, 			{
				"patchline" : 				{
					"destination" : [ "obj-24", 9 ],
					"disabled" : 0,
					"hidden" : 0,
					"midpoints" : [ 319.25, 504.5, 297.693542, 504.5 ],
					"source" : [ "obj-25", 9 ]
				}

			}
, 			{
				"patchline" : 				{
					"destination" : [ "obj-24", 8 ],
					"disabled" : 0,
					"hidden" : 0,
					"midpoints" : [ 288.166656, 504.5, 267.338715, 504.5 ],
					"source" : [ "obj-25", 8 ]
				}

			}
, 			{
				"patchline" : 				{
					"destination" : [ "obj-24", 7 ],
					"disabled" : 0,
					"hidden" : 0,
					"midpoints" : [ 257.083344, 504.5, 236.983871, 504.5 ],
					"source" : [ "obj-25", 7 ]
				}

			}
, 			{
				"patchline" : 				{
					"destination" : [ "obj-24", 6 ],
					"disabled" : 0,
					"hidden" : 0,
					"midpoints" : [ 226.0, 504.5, 206.629028, 504.5 ],
					"source" : [ "obj-25", 6 ]
				}

			}
, 			{
				"patchline" : 				{
					"destination" : [ "obj-24", 5 ],
					"disabled" : 0,
					"hidden" : 0,
					"midpoints" : [ 194.916672, 504.5, 176.2742, 504.5 ],
					"source" : [ "obj-25", 5 ]
				}

			}
, 			{
				"patchline" : 				{
					"destination" : [ "obj-24", 4 ],
					"disabled" : 0,
					"hidden" : 0,
					"midpoints" : [ 163.833328, 504.5, 145.919357, 504.5 ],
					"source" : [ "obj-25", 4 ]
				}

			}
, 			{
				"patchline" : 				{
					"destination" : [ "obj-24", 3 ],
					"disabled" : 0,
					"hidden" : 0,
					"midpoints" : [ 132.75, 504.5, 115.564514, 504.5 ],
					"source" : [ "obj-25", 3 ]
				}

			}
, 			{
				"patchline" : 				{
					"destination" : [ "obj-24", 2 ],
					"disabled" : 0,
					"hidden" : 0,
					"midpoints" : [ 101.666664, 504.5, 85.209679, 504.5 ],
					"source" : [ "obj-25", 2 ]
				}

			}
, 			{
				"patchline" : 				{
					"destination" : [ "obj-24", 1 ],
					"disabled" : 0,
					"hidden" : 0,
					"midpoints" : [ 70.583336, 504.5, 54.854839, 504.5 ],
					"source" : [ "obj-25", 1 ]
				}

			}
, 			{
				"patchline" : 				{
					"destination" : [ "obj-24", 0 ],
					"disabled" : 0,
					"hidden" : 0,
					"midpoints" : [ 39.5, 504.5, 24.5, 504.5 ],
					"source" : [ "obj-25", 0 ]
				}

			}
, 			{
				"patchline" : 				{
					"destination" : [ "obj-25", 18 ],
					"disabled" : 0,
					"hidden" : 0,
					"source" : [ "obj-26", 0 ]
				}

			}
, 			{
				"patchline" : 				{
					"destination" : [ "obj-25", 17 ],
					"disabled" : 0,
					"hidden" : 0,
					"source" : [ "obj-27", 0 ]
				}

			}
, 			{
				"patchline" : 				{
					"destination" : [ "obj-25", 16 ],
					"disabled" : 0,
					"hidden" : 0,
					"source" : [ "obj-28", 0 ]
				}

			}
, 			{
				"patchline" : 				{
					"destination" : [ "obj-23", 0 ],
					"disabled" : 0,
					"hidden" : 0,
					"source" : [ "obj-29", 0 ]
				}

			}
, 			{
				"patchline" : 				{
					"destination" : [ "obj-25", 2 ],
					"disabled" : 0,
					"hidden" : 0,
					"source" : [ "obj-3", 0 ]
				}

			}
, 			{
				"patchline" : 				{
					"destination" : [ "obj-24", 26 ],
					"disabled" : 0,
					"hidden" : 0,
					"source" : [ "obj-30", 0 ]
				}

			}
, 			{
				"patchline" : 				{
					"destination" : [ "obj-24", 31 ],
					"disabled" : 0,
					"hidden" : 0,
					"source" : [ "obj-31", 0 ]
				}

			}
, 			{
				"patchline" : 				{
					"destination" : [ "obj-24", 30 ],
					"disabled" : 0,
					"hidden" : 0,
					"source" : [ "obj-32", 0 ]
				}

			}
, 			{
				"patchline" : 				{
					"destination" : [ "obj-24", 29 ],
					"disabled" : 0,
					"hidden" : 0,
					"source" : [ "obj-33", 0 ]
				}

			}
, 			{
				"patchline" : 				{
					"destination" : [ "obj-24", 28 ],
					"disabled" : 0,
					"hidden" : 0,
					"source" : [ "obj-34", 0 ]
				}

			}
, 			{
				"patchline" : 				{
					"destination" : [ "obj-25", 3 ],
					"disabled" : 0,
					"hidden" : 0,
					"source" : [ "obj-4", 0 ]
				}

			}
, 			{
				"patchline" : 				{
					"destination" : [ "obj-46", 0 ],
					"disabled" : 0,
					"hidden" : 0,
					"midpoints" : [ 129.5, 186.0, 24.5, 186.0 ],
					"source" : [ "obj-41", 0 ]
				}

			}
, 			{
				"patchline" : 				{
					"destination" : [ "obj-24", 0 ],
					"disabled" : 0,
					"hidden" : 0,
					"midpoints" : [ 24.5, 249.0, 24.5, 249.0 ],
					"source" : [ "obj-43", 0 ]
				}

			}
, 			{
				"patchline" : 				{
					"destination" : [ "obj-24", 0 ],
					"disabled" : 0,
					"hidden" : 0,
					"midpoints" : [ 67.888893, 537.0, 24.5, 537.0 ],
					"source" : [ "obj-44", 0 ]
				}

			}
, 			{
				"patchline" : 				{
					"destination" : [ "obj-43", 0 ],
					"disabled" : 0,
					"hidden" : 0,
					"midpoints" : [ 24.5, 222.0, 24.5, 222.0 ],
					"source" : [ "obj-46", 0 ]
				}

			}
, 			{
				"patchline" : 				{
					"destination" : [ "obj-44", 0 ],
					"disabled" : 0,
					"hidden" : 0,
					"midpoints" : [ 67.888893, 222.0, 67.888893, 222.0 ],
					"source" : [ "obj-46", 1 ]
				}

			}
, 			{
				"patchline" : 				{
					"destination" : [ "obj-25", 7 ],
					"disabled" : 0,
					"hidden" : 0,
					"source" : [ "obj-5", 0 ]
				}

			}
, 			{
				"patchline" : 				{
					"destination" : [ "obj-25", 6 ],
					"disabled" : 0,
					"hidden" : 0,
					"source" : [ "obj-6", 0 ]
				}

			}
, 			{
				"patchline" : 				{
					"destination" : [ "obj-25", 5 ],
					"disabled" : 0,
					"hidden" : 0,
					"source" : [ "obj-7", 0 ]
				}

			}
, 			{
				"patchline" : 				{
					"destination" : [ "obj-25", 4 ],
					"disabled" : 0,
					"hidden" : 0,
					"source" : [ "obj-8", 0 ]
				}

			}
, 			{
				"patchline" : 				{
					"destination" : [ "obj-25", 15 ],
					"disabled" : 0,
					"hidden" : 0,
					"source" : [ "obj-9", 0 ]
				}

			}
 ],
		"parameters" : 		{
			"obj-25" : [ "OUTS", "OUTS", 0 ],
			"obj-23" : [ "SUB", "SUB", 0 ]
		}
,
		"dependency_cache" : [  ]
	}

}
